<?xml version="1.0" standalone="no"?>
<!DOCTYPE svg PUBLIC "-//W3C//DTD SVG 20010904//EN"
 "http://www.w3.org/TR/2001/REC-SVG-20010904/DTD/svg10.dtd">
<svg version="1.0" xmlns="http://www.w3.org/2000/svg"
 width="450.000000pt" height="249.000000pt" viewBox="0 0 450.000000 249.000000"
 preserveAspectRatio="xMidYMid meet">
<metadata>
Created by potrace 1.10, written by Peter Selinger 2001-2011
</metadata>
<g transform="translate(0.000000,249.000000) scale(0.050000,-0.050000)"
fill="#000000" stroke="none">
<path d="M1120 4973 c0 -4 56 -28 125 -53 113 -40 471 -179 625 -242 91 -37
230 -90 330 -126 50 -18 108 -41 130 -51 22 -10 166 -67 320 -128 264 -102
430 -166 930 -357 116 -44 240 -92 276 -108 36 -15 76 -28 90 -27 46 1 -82 58
-378 167 -252 93 -534 202 -698 270 -22 9 -134 53 -250 98 -115 45 -399 155
-630 245 -716 279 -870 335 -870 312z"/>
<path d="M7420 4959 c0 -44 50 -73 96 -57 72 27 55 78 -26 78 -38 0 -70 -10
-70 -21z"/>
<path d="M7633 4867 c-24 -150 95 -193 132 -48 23 89 7 121 -62 121 -51 0 -59
-9 -70 -73z"/>
<path d="M1169 4862 c5 -9 40 -28 76 -41 83 -32 131 -51 200 -78 30 -12 55
-14 55 -5 0 10 -16 22 -35 27 -19 6 -96 33 -171 62 -75 28 -131 44 -125 35z"/>
<path d="M6735 4766 c-41 -10 -43 -25 -9 -66 56 -70 153 -32 112 44 -19 36
-37 40 -103 22z"/>
<path d="M7813 4713 c-36 -45 -44 -82 -14 -64 10 6 23 4 29 -6 27 -43 102 -13
103 40 1 70 -71 88 -118 30z"/>
<path d="M1532 4722 c12 -13 93 -50 180 -81 87 -32 214 -80 283 -108 69 -27
125 -43 125 -35 0 8 -61 38 -135 66 -74 28 -153 58 -175 67 -22 8 -80 30 -130
49 -49 19 -108 41 -130 50 -30 12 -35 10 -18 -8z"/>
<path d="M5795 4670 c5 -28 22 -50 37 -50 16 0 28 -9 28 -20 0 -36 35 -21 67
28 29 45 29 47 -8 38 -25 -7 -39 -1 -39 17 0 16 -21 30 -47 32 -40 3 -46 -3
-38 -45z"/>
<path d="M5547 4476 c5 -19 0 -37 -11 -41 -10 -3 18 -16 63 -28 73 -19 81 -18
81 16 0 21 -14 37 -32 37 -18 0 -28 11 -23 25 6 16 -8 25 -39 25 -35 0 -46 -9
-39 -34z"/>
<path d="M2251 4442 c10 -10 60 -32 109 -48 50 -17 138 -50 198 -73 59 -23
112 -38 117 -32 6 5 -2 15 -17 20 -15 6 -64 23 -108 39 -44 16 -129 48 -190
71 -123 46 -136 49 -109 23z"/>
<path d="M2700 4273 c0 -4 43 -23 95 -43 52 -19 122 -47 155 -61 114 -48 190
-67 190 -48 0 10 -10 19 -23 19 -12 0 -102 32 -200 70 -165 65 -217 80 -217
63z"/>
<path d="M1610 4185 c24 -24 250 -92 264 -78 5 5 -41 24 -102 41 -61 18 -127
38 -146 45 -25 9 -30 6 -16 -8z"/>
<path d="M7464 4056 c-31 -31 -30 -53 5 -87 67 -67 131 -18 80 60 -38 57 -51
61 -85 27z"/>
<path d="M3311 4043 c10 -9 87 -42 169 -72 397 -146 580 -209 580 -200 0 11
-26 22 -300 123 -473 176 -483 179 -449 149z"/>
<path d="M4060 3854 c0 -13 216 -114 242 -114 49 0 7 34 -77 63 -52 17 -111
39 -130 47 -19 8 -35 9 -35 4z"/>
<path d="M5089 3845 c-44 -30 -48 -84 -10 -105 41 -22 121 -27 121 -9 0 25
-56 66 -70 53 -9 -8 -5 6 8 31 24 47 -1 63 -49 30z"/>
<path d="M2748 3798 c54 -22 113 -37 130 -33 18 4 -19 23 -81 41 -149 45 -170
41 -49 -8z"/>
<path d="M7047 3793 c-17 -20 -14 -32 15 -50 61 -38 102 -29 94 22 -7 52 -74
69 -109 28z"/>
<path d="M8700 3764 c0 -3 9 -24 21 -45 22 -42 83 -12 66 32 -7 18 -87 31 -87
13z"/>
<path d="M2923 3751 c13 -14 347 -127 827 -281 552 -176 535 -171 544 -163 4
4 -180 69 -408 143 -229 75 -536 175 -683 223 -265 86 -298 96 -280 78z"/>
<path d="M4253 3692 c57 -26 125 -53 150 -60 26 -6 2 10 -53 36 -55 27 -122
54 -150 60 -27 7 -4 -9 53 -36z"/>
<path d="M8937 3694 c-30 -23 -29 -32 15 -105 l48 -79 0 105 c0 110 -8 120
-63 79z"/>
<path d="M4454 3600 c-11 -42 52 -111 84 -91 11 7 15 27 8 44 -10 27 -6 28 33
8 24 -13 48 -21 52 -16 5 4 -31 27 -79 50 -85 41 -88 41 -98 5z"/>
<path d="M7402 3576 c-10 -26 -10 -49 1 -53 9 -3 13 -13 8 -21 -4 -7 16 -13
45 -13 50 1 56 11 47 70 -8 51 -83 63 -101 17z"/>
<path d="M4505 3396 c4 -14 19 -27 32 -28 13 -2 25 -5 28 -8 23 -23 86 -9 86
19 0 25 -20 35 -77 38 -56 4 -76 -2 -69 -21z"/>
<path d="M6737 3322 c22 -14 22 -20 1 -33 -19 -12 -16 -19 13 -29 25 -9 47 -3
62 18 31 42 16 62 -49 62 -38 -1 -46 -6 -27 -18z"/>
<path d="M8390 3274 c-24 -29 -77 -174 -67 -184 33 -32 88 -14 94 30 4 28 14
59 23 70 8 11 8 40 -2 65 -19 51 -21 52 -48 19z"/>
<path d="M3331 3263 c10 -9 55 -26 99 -39 303 -87 354 -100 338 -85 -10 9 -85
36 -168 60 -82 24 -176 52 -208 63 -72 22 -85 23 -61 1z"/>
<path d="M4400 3266 c17 -6 62 -26 100 -44 39 -18 93 -33 120 -33 28 1 57 -8
67 -19 9 -12 13 -8 8 10 -5 16 -21 31 -37 32 -82 6 -97 10 -122 33 -14 14 -57
27 -96 29 -38 2 -56 -2 -40 -8z"/>
<path d="M7681 3241 c-30 -56 -27 -61 36 -61 72 0 86 15 57 62 -30 49 -67 48
-93 -1z"/>
<path d="M5638 3075 c-6 -70 -1 -95 19 -95 14 0 23 -11 18 -24 -4 -14 -34 -25
-66 -25 -36 -1 -57 -11 -54 -26 3 -14 -4 -25 -15 -25 -25 0 -26 54 -2 69 32
20 -22 171 -61 171 -13 0 -18 -5 -12 -12 7 -7 4 -33 -6 -59 -11 -30 -10 -52 2
-60 11 -6 14 -20 8 -31 -22 -36 14 -96 82 -139 38 -23 69 -54 69 -69 0 -15 18
-33 40 -40 26 -8 40 -30 40 -62 0 -79 38 -123 98 -112 44 8 48 5 26 -18 -14
-16 -36 -28 -48 -28 -13 0 -24 -20 -26 -45 -2 -25 4 -45 13 -45 10 0 37 -22
61 -50 68 -79 104 -66 88 31 -9 55 -6 78 8 69 11 -7 16 -20 11 -29 -6 -9 18
-22 53 -29 49 -10 58 -18 40 -36 -33 -33 -30 -66 2 -39 20 16 33 16 50 -1 26
-26 33 -137 9 -134 -44 7 -65 -6 -65 -40 0 -20 -13 -48 -30 -62 -37 -31 -37
-55 -2 -124 16 -29 23 -58 17 -64 -12 -12 -55 51 -77 113 -7 19 -23 35 -35 35
-13 0 -10 9 6 19 16 10 36 14 45 9 9 -6 16 15 16 47 0 31 11 68 25 82 20 20
19 28 -1 40 -14 9 -20 33 -13 55 11 35 10 35 -11 3 -16 -25 -37 -32 -76 -23
-30 6 -45 4 -33 -5 32 -25 56 -91 50 -137 -7 -59 -17 -61 -66 -14 -81 76 -124
-10 -49 -97 48 -56 43 -63 -36 -48 -47 9 -70 6 -70 -9 0 -15 -18 -11 -49 9
-27 18 -44 44 -38 58 5 15 0 33 -12 40 -32 20 -25 51 12 51 43 0 23 21 -26 28
-20 3 -40 23 -44 44 -4 21 -25 49 -45 64 -21 14 -37 37 -36 50 1 17 4 17 11
-1 13 -32 53 -33 42 -1 -4 14 -30 30 -56 37 -36 9 -48 24 -44 57 3 28 -3 39
-17 31 -21 -14 -138 97 -138 131 0 9 14 31 31 48 17 18 27 40 21 49 -18 28
-114 21 -126 -9 -6 -16 -23 -28 -38 -28 -15 0 -28 -12 -28 -27 0 -16 -31 -33
-75 -40 -113 -19 -122 -17 -111 27 6 22 1 40 -12 40 -12 0 -22 -10 -22 -21 0
-35 -54 -79 -96 -79 -26 0 -43 -17 -49 -51 -7 -37 -2 -48 16 -41 35 13 98 -81
63 -95 -13 -5 -5 -11 19 -11 23 -1 54 -17 70 -36 20 -25 20 -30 1 -18 -33 20
-130 -42 -112 -71 9 -15 20 -11 31 10 10 17 31 26 46 20 16 -5 40 8 53 29 23
37 29 38 72 9 26 -17 49 -27 52 -23 61 109 61 104 7 91 -28 -7 -56 -4 -63 7
-11 18 48 31 98 22 9 -2 30 15 46 37 28 41 106 57 106 22 0 -10 -18 -31 -40
-47 -47 -33 -34 -98 17 -89 23 3 33 -9 31 -40 0 -25 11 -45 25 -45 15 0 27 15
27 33 0 28 9 26 50 -13 28 -26 50 -37 50 -25 0 12 -11 26 -25 32 -14 5 -6 11
18 11 36 2 43 -9 43 -70 0 -56 14 -84 67 -130 l67 -58 -80 3 c-131 4 -143 1
-100 -30 20 -15 52 -23 71 -18 24 6 40 -7 51 -38 23 -67 23 -84 2 -112 -10
-14 -11 -25 -1 -25 22 -1 -37 -39 -61 -40 -10 0 -13 5 -7 12 7 7 -5 31 -26 54
-22 23 -39 57 -39 77 0 19 -9 40 -20 47 -29 18 -25 105 5 117 16 6 -7 40 -62
90 -48 44 -99 76 -113 70 -32 -12 -63 33 -35 50 13 8 10 22 -7 39 -23 21 -29
19 -31 -10 -6 -68 4 -114 28 -130 16 -10 9 -15 -21 -16 -26 0 -41 8 -35 18 6
9 -5 16 -24 15 -22 -2 -33 9 -29 30 7 48 -27 63 -75 33 -52 -32 -53 -77 -2
-90 21 -5 43 -22 48 -36 8 -20 -2 -21 -49 -3 -32 12 -58 32 -58 44 0 12 -27
22 -60 22 -74 0 -75 3 10 -82 39 -38 70 -64 70 -58 0 6 24 -4 53 -23 30 -20
57 -26 65 -15 52 80 329 -15 296 -102 -6 -15 -1 -38 11 -50 29 -29 6 -51 -36
-35 -22 8 -30 27 -23 54 10 36 5 40 -39 29 -40 -10 -53 -4 -61 28 -6 23 -23
41 -38 41 -32 0 -37 -32 -8 -50 59 -37 21 -132 -48 -119 -42 8 -73 4 -81 -10
-11 -17 -22 -17 -42 0 -24 19 -23 27 2 52 33 34 38 67 9 67 -11 0 -20 9 -20
20 0 11 20 20 43 20 58 0 34 22 -31 29 -51 5 -66 -28 -53 -124 4 -32 -33 -32
-46 0 -8 20 -10 20 -11 0 -1 -14 -21 -25 -43 -25 -23 0 -36 -9 -29 -20 7 -11
34 -15 61 -8 56 14 58 6 25 -86 -26 -70 -81 -89 -111 -36 -24 43 -6 170 24
170 37 0 28 110 -9 111 -16 0 -40 7 -53 15 -13 8 -27 6 -30 -4 -4 -11 -24 -6
-46 9 -21 16 -32 34 -25 42 7 7 26 2 42 -11 23 -19 33 -17 48 11 17 30 25 31
52 9 30 -25 42 -11 27 33 -7 19 -135 19 -135 0 0 -8 -9 -15 -20 -15 -57 0 -5
99 66 126 34 13 34 16 -5 58 -23 24 -41 51 -41 60 0 9 -15 16 -33 16 -26 0
-30 15 -22 80 9 61 4 80 -18 80 -15 0 -34 14 -40 31 -7 18 -25 26 -43 19 -17
-6 -37 -2 -44 10 -9 15 -22 12 -39 -9 -21 -25 -19 -32 12 -42 74 -23 97 -45
92 -88 -3 -25 4 -38 15 -31 11 7 20 -5 20 -27 0 -22 6 -55 13 -75 11 -26 7
-30 -15 -17 -20 12 -18 2 7 -36 43 -66 43 -75 5 -75 -17 0 -40 23 -50 50 -21
54 -51 65 -67 25 -8 -20 -10 -20 -11 0 -1 14 16 43 38 65 22 22 40 45 40 51 0
7 -18 6 -40 -1 -23 -7 -40 -4 -40 9 0 11 -9 21 -20 21 -11 0 -20 -14 -20 -30
0 -17 -10 -28 -22 -25 -13 3 -27 -7 -32 -21 -7 -19 6 -23 47 -15 31 6 46 6 32
-1 -14 -6 -20 -20 -13 -31 11 -17 -54 -97 -79 -97 -5 0 -14 23 -21 50 -7 28
-26 50 -42 50 -17 0 -30 9 -30 21 0 14 -13 13 -41 -1 -22 -12 -66 -18 -97 -13
-81 12 -104 -10 -99 -93 5 -75 37 -104 104 -95 21 2 32 -5 25 -16 -14 -22 79
-19 101 4 25 25 51 13 39 -18 -6 -17 1 -35 18 -42 28 -11 44 -67 19 -67 -36 0
-88 45 -76 66 8 13 -4 8 -26 -11 -76 -67 -28 -196 58 -155 42 21 42 20 -4 -17
-38 -31 -48 -56 -45 -111 4 -61 -1 -72 -35 -72 -25 0 -42 14 -43 35 -10 218
-7 297 10 309 12 8 15 20 7 28 -8 7 -28 2 -44 -11 -25 -21 -33 -20 -43 7 -7
17 -29 32 -50 32 -24 0 -38 14 -38 38 0 21 -14 43 -32 50 -56 22 -70 14 -49
-27 14 -26 14 -43 1 -51 -35 -22 -100 11 -100 51 0 27 9 34 33 25 22 -8 29 -5
20 9 -16 26 43 90 69 74 10 -6 18 2 18 19 0 64 -178 20 -179 -45 -1 -15 -23
-45 -51 -67 -60 -47 -64 -88 -10 -102 50 -13 55 -77 5 -66 -100 22 -125 37
-106 61 15 18 6 31 -32 49 -49 22 -51 27 -21 56 25 25 38 27 60 9 33 -27 54
-11 54 40 0 44 5 44 -98 8 -45 -16 -95 -25 -110 -19 -15 6 -31 -6 -37 -30 -9
-35 13 -61 47 -54 23 4 78 -53 78 -82 0 -19 -13 -25 -38 -17 -21 7 -44 3 -51
-8 -8 -12 -27 -21 -45 -21 -25 0 -26 6 -6 30 21 25 18 30 -16 30 -37 0 -68 46
-74 110 -1 11 -15 17 -31 13 -16 -4 -49 -7 -74 -8 -24 0 -39 -9 -32 -19 7 -11
-15 -17 -52 -13 -39 4 -70 -4 -82 -23 -17 -26 -22 -25 -40 5 -22 37 -99 49
-99 15 0 -11 -28 -20 -61 -20 -75 0 -68 -63 15 -133 37 -31 43 -45 23 -53 -19
-8 -18 -11 6 -12 19 -1 37 6 40 15 14 34 117 46 117 13 0 -19 -19 -30 -50 -30
-27 0 -50 -10 -50 -21 0 -12 7 -17 16 -11 9 5 28 2 42 -7 34 -21 131 68 111
101 -11 17 0 20 38 11 29 -8 53 -5 53 5 0 11 27 16 60 11 35 -4 60 2 60 15 0
13 5 18 10 12 31 -30 -22 -73 -103 -85 -50 -8 -85 -19 -79 -26 7 -7 -7 -33
-32 -59 l-43 -47 64 23 c35 12 75 38 88 57 28 39 95 47 95 10 0 -37 -51 -71
-87 -57 -22 8 -33 2 -33 -18 0 -17 11 -35 25 -40 20 -7 20 -15 1 -35 -20 -20
-30 -21 -55 0 -27 22 -31 19 -31 -25 0 -58 -40 -97 -41 -40 -1 91 -112 167
-139 96 -16 -43 -26 -50 -48 -32 -21 17 -41 17 -80 -1 -62 -28 -152 3 -152 53
0 23 13 28 50 18 38 -9 50 -5 50 20 0 18 14 38 30 45 51 19 33 51 -25 42 -30
-5 -44 -5 -30 0 31 10 32 38 4 56 -12 7 -37 0 -55 -16 -19 -16 -52 -35 -74
-43 -38 -14 -38 -16 -5 -41 19 -14 35 -35 35 -46 0 -29 -83 -47 -111 -24 -35
29 -53 -4 -21 -39 15 -18 32 -50 38 -72 7 -31 10 -28 12 14 2 56 31 90 51 58
6 -10 -2 -42 -18 -72 -28 -55 -22 -110 11 -110 10 0 16 -11 13 -24 -3 -13 10
-27 27 -31 26 -5 31 5 23 45 -7 38 -19 49 -43 41 -26 -9 -26 -6 3 16 19 15 36
44 37 65 1 21 11 7 22 -32 27 -96 74 -134 183 -151 51 -7 93 -20 93 -27 0 -8
45 -26 101 -40 184 -47 62 -132 -178 -124 -51 1 -65 9 -56 32 7 16 3 30 -8 30
-10 0 -19 -7 -19 -16 0 -8 -18 -15 -40 -15 -57 0 -50 48 10 63 28 7 50 21 50
32 0 11 -13 15 -29 9 -17 -6 -42 1 -58 17 -15 15 -36 20 -45 11 -30 -27 -115
-48 -100 -25 26 42 -30 45 -81 5 -60 -47 -144 -41 -181 14 -14 19 -34 46 -46
59 -11 14 -18 35 -15 48 11 51 -43 35 -100 -30 -38 -43 -75 -66 -98 -62 -20 4
-44 8 -52 8 -8 1 -15 30 -15 64 0 54 4 59 30 38 25 -20 30 -19 30 8 0 37 33
43 45 8 5 -17 20 -15 51 7 61 43 -6 115 -73 79 -62 -34 -78 -27 -68 28 10 51
45 70 45 25 1 -18 5 -18 18 2 13 21 26 22 59 4 57 -30 54 -10 -7 51 -28 27
-50 40 -50 29 0 -32 -52 -25 -83 12 -15 18 -24 50 -21 70 4 22 -5 37 -23 37
-16 0 -34 14 -40 30 -7 17 -25 30 -40 30 -16 0 -34 13 -40 30 -20 52 -50 33
-49 -31 3 -103 -46 -132 -119 -70 -33 28 -77 51 -98 50 -35 0 -35 -2 2 -30 37
-28 37 -29 -9 -29 l-47 0 44 -46 c23 -26 43 -63 43 -83 0 -33 3 -33 49 -4 52
35 79 18 59 -36 -10 -25 -19 -27 -40 -9 -20 16 -28 16 -28 1 0 -20 61 -63 90
-63 6 0 9 15 6 33 -3 18 5 37 19 42 16 5 25 -12 25 -51 0 -44 18 -73 69 -112
37 -28 74 -70 81 -92 7 -22 20 -36 29 -31 9 6 40 -8 69 -31 29 -23 66 -37 83
-31 38 15 37 -15 -1 -47 -23 -19 -36 -20 -59 -1 -16 14 -39 19 -50 12 -12 -8
-21 -3 -21 10 0 18 -8 18 -30 -1 -31 -26 -41 -62 -15 -58 8 2 22 1 30 -2 8 -3
26 -6 40 -8 14 -1 22 -21 19 -45 -7 -54 83 -77 128 -32 16 16 35 24 42 18 7
-7 24 -3 39 10 15 12 27 14 27 4 0 -9 9 -4 19 13 15 24 24 25 44 5 19 -19 19
-25 1 -25 -13 0 -24 -13 -24 -30 0 -16 -23 -35 -50 -42 -28 -7 -50 -21 -50
-32 0 -11 -25 -14 -60 -6 -38 8 -60 5 -60 -8 0 -12 20 -24 45 -26 25 -2 63 -5
85 -7 22 -2 63 -13 90 -24 88 -36 129 -37 156 -6 22 26 25 20 15 -42 -13 -76
7 -105 69 -106 20 -1 28 -18 24 -51 -5 -48 -4 -48 25 -10 16 22 30 29 30 15 1
-14 11 -25 22 -25 13 0 16 17 9 40 -10 31 -4 40 27 40 68 0 67 34 -1 48 -144
29 8 69 196 52 42 -4 76 8 105 37 30 30 34 43 15 43 -15 0 -33 -14 -39 -30 -7
-17 -22 -30 -35 -30 -12 0 -17 13 -11 30 7 16 1 30 -12 30 -36 0 13 42 57 48
21 3 38 18 38 34 0 43 53 55 93 21 23 -20 29 -38 17 -53 -12 -15 -11 -31 4
-46 17 -17 16 -30 -4 -54 -34 -41 -10 -63 31 -29 20 17 27 43 20 73 -8 33 -3
46 19 46 36 0 40 33 5 47 -19 7 -19 10 1 11 32 2 96 62 66 62 -34 0 -68 79
-45 106 23 29 6 138 -20 122 -10 -6 -13 -18 -7 -27 5 -9 -4 -22 -21 -28 -21
-9 -33 4 -42 46 -7 36 -27 62 -53 68 -55 15 -27 42 45 45 31 2 77 24 102 49
44 44 47 45 61 8 24 -62 20 -72 -19 -50 -29 15 -46 11 -71 -17 -40 -44 -11
-64 72 -48 65 12 84 -18 85 -134 1 -76 8 -91 43 -96 62 -9 104 50 59 83 -32
23 -30 27 19 50 44 19 52 34 45 75 -11 58 33 88 71 50 18 -18 17 -28 -4 -41
-15 -9 -21 -27 -13 -39 8 -14 -12 -34 -53 -52 -39 -17 -51 -29 -30 -29 19 -1
43 -21 51 -44 11 -30 21 -36 31 -20 8 13 24 18 35 11 34 -21 126 11 101 36
-16 16 -31 15 -53 -3 -26 -22 -31 -20 -31 7 0 48 8 63 30 56 11 -4 10 4 -3 17
-36 37 36 97 101 84 29 -5 57 -18 63 -27 19 -30 54 -20 42 11 -8 21 8 33 58
42 77 15 79 19 44 95 -25 54 -75 74 -75 30 0 -18 -6 -18 -25 1 -20 20 -19 28
3 42 15 9 21 27 13 39 -26 42 47 22 101 -28 30 -27 65 -50 79 -50 60 0 67
-139 7 -155 -28 -7 -38 -22 -32 -47 5 -20 -1 -40 -13 -44 -13 -5 1 -20 31 -34
30 -14 49 -35 43 -45 -7 -11 -2 -26 11 -34 37 -22 3 -79 -45 -75 -44 3 -114
54 -74 54 11 0 21 23 21 50 0 28 -9 50 -21 50 -11 0 -18 -15 -15 -34 4 -21 -9
-38 -34 -42 -22 -5 -33 -1 -25 7 8 8 -9 27 -38 42 -63 33 -87 34 -87 5 0 -12
14 -17 30 -11 38 15 38 4 -1 -36 -18 -17 -65 -32 -105 -33 -41 -2 -58 -7 -38
-12 50 -13 34 -74 -21 -82 -34 -5 -42 1 -33 25 7 17 5 32 -5 33 -9 1 -42 5
-72 10 -58 10 -75 -24 -34 -65 15 -15 11 -32 -15 -58 -29 -29 -37 -31 -42 -7
-7 38 -109 82 -151 66 -39 -14 -44 -67 -8 -71 95 -12 157 -37 144 -58 -6 -11
-29 -19 -50 -19 -26 0 -39 -14 -39 -40 0 -23 13 -40 31 -40 17 0 26 -9 19 -20
-7 -11 -3 -20 9 -20 11 0 21 9 21 20 0 11 10 20 21 20 12 0 17 -8 11 -17 -6
-10 12 -13 39 -8 42 8 47 4 36 -28 -10 -30 -8 -32 13 -13 15 14 28 41 31 60 6
55 33 112 76 156 38 40 38 40 28 -15 -11 -62 0 -67 55 -27 23 16 50 21 69 11
17 -9 48 -21 68 -28 27 -8 35 -25 28 -60 -5 -27 -1 -60 8 -75 12 -20 16 -17
17 9 1 94 131 -3 157 -117 l18 -78 33 76 c18 42 29 83 23 93 -11 17 71 46 87
30 5 -5 -8 -22 -28 -36 -35 -26 -34 -29 22 -64 32 -20 62 -39 66 -42 4 -4 -3
-19 -17 -35 -20 -25 -11 -33 55 -51 80 -21 302 -48 239 -29 -19 6 -35 24 -35
40 0 23 -9 25 -39 9 -50 -27 -61 -26 -61 6 0 25 139 81 157 63 11 -11 22 -93
30 -230 4 -60 14 -126 22 -145 12 -27 8 -33 -17 -23 -17 7 -32 2 -32 -10 0
-12 -17 -22 -39 -22 -45 0 -70 62 -49 125 23 73 26 136 5 123 -10 -6 -33 0
-50 15 -29 23 -31 16 -18 -75 11 -80 7 -106 -18 -127 -28 -23 -28 -29 -1 -49
22 -16 25 -38 14 -81 -19 -70 -64 -92 -64 -31 0 47 -48 46 -52 -2 -8 -108 -8
-109 -28 -78 -10 16 -28 31 -39 32 -12 2 -30 4 -41 6 -11 1 -20 12 -20 24 0
12 13 17 29 11 36 -14 54 12 83 117 12 44 32 78 45 75 13 -3 23 9 23 26 0 17
-8 26 -19 20 -10 -7 -18 4 -18 24 0 62 -16 113 -38 120 -15 5 -22 -36 -21
-119 2 -158 -15 -216 -65 -216 -47 0 -49 17 -8 76 36 50 15 58 -42 15 -44 -34
-69 -39 -69 -14 0 9 22 28 49 43 27 14 45 33 40 41 -14 24 -70 10 -90 -22 -16
-25 -18 -24 -19 2 0 17 10 41 22 53 37 37 3 70 -45 44 -22 -12 -64 -26 -94
-31 l-53 -9 44 41 c24 22 59 41 76 41 18 0 27 9 20 20 -7 12 -21 16 -30 10
-26 -16 -47 31 -25 53 14 14 30 9 48 -13 15 -18 43 -48 62 -66 19 -18 35 -46
35 -62 0 -23 5 -25 24 -6 18 18 18 30 1 47 -33 33 8 104 49 88 25 -9 27 -6 9
15 -12 15 -16 34 -8 42 8 9 -8 10 -36 3 -72 -19 -155 18 -162 71 -4 25 -18 47
-32 50 -15 3 -17 1 -7 -5 11 -5 15 -22 10 -36 -6 -15 -1 -33 11 -40 32 -20 25
-57 -9 -44 -22 9 -30 -2 -30 -38 0 -36 -11 -49 -41 -49 -34 0 -39 -8 -28 -43
11 -34 7 -41 -19 -31 -17 7 -32 4 -32 -7 0 -10 -18 -19 -39 -19 -26 0 -36 10
-29 28 13 34 -89 63 -119 33 -15 -15 -12 -21 10 -21 17 0 30 -13 30 -30 0 -16
-16 -30 -36 -30 -20 0 -37 10 -37 21 0 12 -9 16 -19 10 -10 -7 -25 20 -32 58
-10 53 -24 71 -52 71 -22 0 -34 -9 -26 -21 7 -11 2 -34 -12 -50 -15 -19 -16
-29 -3 -29 12 0 27 9 34 20 7 12 22 15 34 8 13 -9 8 -21 -13 -33 -31 -17 -31
-20 3 -46 34 -26 34 -28 1 -28 -34 -1 -34 -4 -3 -51 18 -27 28 -62 22 -78 -16
-41 5 -54 50 -30 28 15 33 28 17 46 -11 14 -14 33 -6 42 8 9 5 11 -8 3 -39
-22 -72 38 -37 67 23 19 30 20 30 0 0 -16 17 -20 48 -12 59 15 71 -12 54 -118
-9 -55 -24 -82 -50 -87 -23 -4 -32 1 -23 15 7 12 0 22 -18 22 -17 0 -31 -13
-31 -30 0 -39 -38 -39 -53 0 -6 16 -23 30 -37 30 -14 0 -39 29 -57 65 l-32 65
-1 -55 c0 -30 -8 -55 -19 -55 -10 0 -22 -16 -27 -35 -9 -33 -9 -33 -12 0 -2
40 -34 47 -49 10 -6 -16 -10 -14 -11 7 -1 17 21 43 48 58 28 15 50 41 50 58
-1 28 -3 28 -20 2 -12 -19 -20 -21 -20 -6 0 14 -13 20 -30 13 -16 -6 -25 -19
-19 -29 13 -21 -14 -23 -59 -6 -18 7 -32 25 -32 40 0 16 -18 44 -40 63 -48 41
-51 91 -8 134 25 25 38 27 61 9 47 -40 57 -1 10 40 -43 37 -123 37 -123 0 0
-10 -19 -18 -41 -18 -25 0 -36 -9 -28 -22 7 -12 29 -17 49 -12 26 7 32 0 25
-29 -5 -20 -27 -37 -47 -37 -21 0 -38 -9 -38 -20 0 -11 18 -20 40 -20 47 0 54
-56 10 -73 -22 -8 -24 -20 -9 -49 16 -30 14 -38 -11 -38 -18 0 -26 10 -19 21
7 12 -3 33 -22 47 -22 16 -31 41 -25 66 8 31 1 40 -32 38 -45 -2 -79 -172 -33
-172 11 0 21 -12 21 -28 0 -17 34 -32 92 -41 50 -8 87 -19 81 -25 -12 -12 73
-86 97 -86 8 0 9 13 3 29 -6 17 -3 35 8 42 10 6 19 -6 19 -28 0 -50 106 -79
152 -42 23 20 40 19 82 -3 41 -22 54 -23 61 -3 5 14 16 25 26 25 10 0 13 -12
7 -27 -8 -21 14 -26 96 -24 126 4 156 -4 156 -41 0 -29 60 -16 84 20 9 13 26
9 50 -11 35 -30 296 -49 278 -20 -5 7 31 10 80 6 55 -4 88 1 88 15 0 12 10 22
21 22 12 0 15 -10 7 -23 -18 -29 617 -11 696 20 38 15 55 15 61 -1 5 -15 18
-16 46 -1 22 12 63 17 92 11 29 -5 58 0 66 12 9 15 24 14 51 -3 30 -18 54 -18
110 2 54 20 79 21 99 4 19 -16 29 -16 34 -1 5 13 60 22 132 23 69 0 130 9 137
19 6 11 29 14 52 7 22 -7 107 -13 189 -12 114 0 152 -7 161 -29 9 -26 15 -26
43 -2 30 26 246 45 373 34 124 -11 279 -2 286 18 5 14 18 11 37 -8 16 -17 45
-31 63 -32 19 -1 61 -5 94 -9 77 -10 84 -11 181 -6 45 2 90 -1 100 -8 29 -18
186 -25 201 -9 8 8 3 14 -12 14 -15 0 -21 6 -14 13 7 7 28 1 46 -14 44 -37 87
-41 161 -15 52 19 69 17 95 -10 24 -23 63 -30 142 -26 89 4 110 -1 110 -26 0
-19 7 -24 15 -11 17 23 45 25 76 5 12 -8 34 3 48 23 21 28 44 35 94 27 65 -11
96 19 42 41 -14 5 -5 11 20 11 27 1 45 -10 45 -28 0 -16 13 -30 29 -30 16 0
38 -16 49 -35 17 -28 21 -29 21 -4 1 32 181 47 181 15 0 -36 42 -12 60 34 25
67 37 63 32 -10 -2 -33 3 -60 12 -60 9 0 16 46 16 101 0 56 -8 96 -18 90 -9
-6 -22 7 -28 28 -7 29 -21 35 -57 26 -37 -11 -40 -15 -12 -21 50 -10 43 -33
-20 -65 -73 -37 -101 -46 -69 -24 21 15 20 24 -5 44 -21 18 -31 19 -31 3 0
-12 -9 -22 -20 -22 -11 0 -18 10 -15 22 3 13 -6 27 -20 32 -16 6 -25 -9 -25
-42 0 -29 -10 -52 -21 -52 -12 0 -16 9 -9 19 17 29 -112 57 -178 38 -58 -16
-92 -8 -92 21 0 8 27 11 60 6 80 -12 77 25 -5 49 l-65 19 64 28 c35 16 55 35
43 42 -11 7 21 33 71 57 51 25 92 53 92 64 0 10 16 16 35 13 23 -4 37 9 41 39
5 33 20 45 55 45 55 0 65 -29 18 -55 -26 -15 -22 -22 20 -41 28 -13 51 -15 51
-5 0 23 55 14 83 -14 12 -12 23 -59 24 -104 4 -144 33 -86 33 66 0 157 -41
232 -110 206 -17 -7 -48 -2 -68 10 -22 14 -52 17 -74 7 -21 -9 -54 -14 -73
-12 -26 3 -35 -10 -35 -48 0 -86 -111 -153 -150 -90 -15 24 -90 27 -90 3 0
-10 -22 -13 -48 -8 -49 9 -85 95 -49 117 9 6 17 0 17 -12 0 -12 10 -16 23 -8
16 10 12 22 -14 41 -20 15 -32 29 -28 32 5 4 34 19 64 34 64 32 71 52 16 52
-21 0 -34 -6 -29 -14 5 -8 -2 -21 -14 -28 -12 -8 -29 -3 -38 11 -10 16 -21 -6
-30 -57 -7 -46 -23 -83 -34 -83 -11 0 -15 -20 -9 -44 7 -26 -1 -58 -18 -77
-26 -29 -26 -40 -1 -89 25 -48 25 -59 1 -84 -16 -16 -29 -42 -29 -59 0 -16 -8
-24 -19 -18 -10 6 -24 -7 -31 -29 -7 -22 -26 -40 -41 -40 -36 0 -38 33 -4 47
17 7 15 10 -6 11 -53 3 -48 120 6 141 25 10 37 19 27 20 -10 0 -1 20 19 42 38
42 37 42 -17 28 -53 -13 -76 15 -34 41 12 7 15 23 7 35 -9 14 -2 17 19 9 18
-7 38 -4 45 7 12 19 -14 26 -76 20 -48 -5 -44 40 5 53 44 12 55 46 15 47 -15
0 -11 11 10 27 37 28 49 63 15 42 -11 -7 -20 -3 -20 9 0 11 10 21 22 21 17 0
17 7 1 26 -25 31 6 74 53 74 16 0 24 12 17 28 -13 36 53 96 100 90 20 -2 53 3
72 11 20 9 53 11 74 5 28 -7 41 2 45 33 4 24 19 40 35 37 15 -3 34 4 42 17 8
13 44 27 80 31 78 9 105 28 39 28 -46 0 -46 0 -6 35 22 19 36 47 31 61 -7 21
-14 20 -32 -2 -13 -16 -66 -54 -119 -84 l-96 -55 -12 43 c-6 24 -21 40 -34 36
-12 -4 -33 7 -47 24 -22 29 -26 27 -36 -11 -16 -57 -129 -78 -129 -25 0 44 33
68 46 33 7 -20 14 -20 35 0 21 20 17 32 -20 65 -60 51 -70 50 -109 -10 -22
-34 -25 -50 -9 -50 13 0 18 -6 11 -13 -7 -7 -26 -2 -42 11 -22 19 -32 18 -44
-1 -8 -14 -5 -28 8 -32 32 -11 30 -45 -2 -45 -14 0 -27 -17 -28 -38 -2 -28 7
-35 35 -27 22 5 39 16 39 24 0 7 13 31 29 52 28 37 30 36 27 -21 -2 -33 -14
-73 -28 -90 -13 -16 -29 -48 -35 -70 -7 -24 -9 -18 -5 15 5 43 -2 55 -31 55
-31 0 -35 -7 -19 -37 20 -38 22 -121 3 -119 -39 3 -62 -7 -52 -23 17 -26 -32
-123 -57 -115 -12 4 -19 27 -16 51 5 30 -2 40 -22 32 -28 -11 -38 -70 -41
-254 -1 -66 -33 -113 -33 -50 -1 18 -5 18 -18 -2 -9 -15 -12 -85 -7 -155 8
-100 4 -128 -17 -130 -16 0 -44 -4 -63 -8 -39 -7 -49 22 -12 34 13 5 19 20 14
35 -6 19 -29 6 -73 -41 -35 -37 -64 -57 -64 -43 0 14 8 25 18 25 9 0 28 27 42
59 13 32 38 62 55 65 27 5 55 96 30 96 -15 0 -57 -50 -70 -85 -8 -19 -21 -35
-30 -35 -25 0 -26 85 -2 114 15 18 15 26 1 26 -26 0 -17 80 27 230 18 63 35
127 37 142 12 79 63 34 79 -70 7 -44 0 -77 -18 -96 -16 -16 -24 -38 -17 -50 9
-13 18 -12 28 4 9 15 20 3 30 -33 l16 -57 15 67 c8 37 8 93 -1 124 -9 32 -12
74 -7 95 7 26 -2 42 -29 49 -22 5 -43 33 -48 63 -11 57 13 90 31 43 6 -15 31
-31 57 -34 38 -6 45 -18 41 -67 -4 -57 -4 -58 15 -13 13 30 31 43 49 36 44
-17 59 22 62 157 2 66 -1 108 -6 94 -7 -19 -16 -20 -36 -3 -15 12 -21 36 -14
54 7 19 4 27 -9 18 -13 -7 -25 11 -30 45 -7 51 -4 55 26 36 20 -12 31 -29 26
-38 -6 -9 23 -16 63 -16 63 0 70 4 49 30 -20 24 -19 30 5 30 17 0 52 19 78 41
l47 42 -65 -11 c-74 -13 -83 10 -25 68 41 41 100 35 100 -12 0 -15 18 -28 40
-28 63 0 47 55 -20 70 -39 9 -60 26 -60 48 0 23 -15 35 -43 34 -24 -1 -47 9
-52 23 -5 15 9 25 36 25 36 0 42 9 34 49 -6 34 5 63 36 92 38 36 45 38 41 10
-3 -19 -18 -42 -33 -52 -23 -14 -19 -18 14 -19 34 0 42 -10 38 -50 -3 -27 5
-50 17 -51 12 0 6 -12 -14 -27 -30 -23 -31 -29 -5 -39 39 -15 90 57 76 108 -6
27 1 39 23 39 17 0 30 11 27 24 -3 13 13 27 35 32 22 5 46 18 53 30 21 33 -33
73 -82 60 -30 -8 -37 -16 -20 -27 17 -10 13 -21 -17 -37 -35 -18 -43 -15 -54
18 -7 22 -30 40 -50 40 -21 0 -43 9 -50 20 -32 51 -91 20 -87 -45 7 -116 -153
-313 -209 -257 -18 18 -11 22 26 18 36 -4 48 2 42 24 -26 103 -26 120 4 120
18 0 38 10 46 23 9 14 5 18 -9 9 -13 -8 -23 -4 -23 8 0 12 -10 16 -23 8 -15
-9 -18 -5 -9 9 8 13 22 19 32 13 9 -5 12 8 6 30 -9 33 -1 40 43 40 46 0 52 6
40 43 -13 40 -9 42 64 30 42 -7 88 -13 101 -13 13 0 29 -17 35 -38 12 -38 91
-38 91 0 0 29 55 21 88 -13 18 -17 42 -25 54 -18 12 8 29 4 36 -8 7 -12 34
-16 59 -10 45 12 45 12 -11 49 -31 20 -77 52 -102 71 -25 18 -45 25 -43 15 11
-55 -2 -69 -42 -48 -22 12 -58 17 -80 10 -52 -17 -49 -2 11 58 41 42 50 44 52
16 1 -21 5 -24 11 -9 6 14 23 25 39 25 15 0 28 19 28 42 0 32 9 40 39 33 51
-14 46 63 -8 116 -34 34 -37 35 -26 4 8 -19 5 -35 -6 -35 -10 0 -19 -13 -19
-30 0 -36 -33 -40 -45 -6 -6 19 -11 19 -23 0 -8 -13 -5 -24 7 -24 11 0 21 -8
21 -19 0 -20 -162 -15 -196 7 -12 7 -27 3 -34 -8 -16 -26 -50 -6 -50 29 0 18
25 27 75 26 104 -1 164 10 152 29 -5 9 11 24 37 34 l46 18 -49 19 c-48 18 -48
19 -5 30 24 6 44 26 44 43 0 41 -19 41 -50 -1 -22 -30 -28 -29 -69 12 -47 47
-90 27 -67 -32 6 -15 0 -27 -13 -27 -13 0 -18 9 -11 20 7 11 -1 20 -18 20 -19
0 -26 -11 -19 -30 7 -18 0 -30 -17 -30 -19 0 -27 20 -24 60 5 68 -23 81 -42
20 -16 -51 -70 -54 -57 -3 13 47 -61 71 -95 31 -58 -70 -119 -11 -100 98 2 10
-5 12 -16 5 -10 -6 -22 -1 -26 12 -6 17 -20 16 -54 -2 -38 -20 -50 -20 -64 2
-14 22 -18 21 -18 -3 -1 -25 -5 -25 -26 3 -59 78 -238 110 -277 50 -9 -13 -25
-11 -47 7 -26 21 -36 22 -48 3 -9 -14 -15 3 -13 41 1 36 9 77 17 90 8 13 6 29
-6 36 -11 7 -20 30 -20 51 0 22 -5 39 -11 39 -22 0 -74 -62 -62 -74 7 -7 3
-24 -9 -39 -18 -21 -27 -21 -51 4 -33 32 -87 39 -87 11 0 -10 28 -42 61 -70
34 -28 57 -60 50 -70 -6 -10 8 -13 32 -7 56 15 41 -37 -18 -64 -23 -11 -47
-36 -52 -55 -5 -20 -28 -36 -50 -36 -22 0 -47 -10 -55 -23 -9 -15 -19 -12 -32
10 -10 18 -41 33 -69 33 -44 0 -48 -5 -27 -30 14 -16 18 -30 10 -30 -8 0 -4
-13 9 -29 13 -16 37 -24 52 -18 16 6 29 1 29 -11 0 -12 -25 -20 -55 -17 -30 3
-55 -4 -56 -15 0 -11 11 -17 25 -14 14 3 26 -4 26 -15 0 -12 14 -21 30 -21 17
0 30 9 30 20 0 37 100 88 125 63 14 -14 15 -23 3 -23 -11 0 -38 -14 -59 -30
-36 -28 -35 -29 19 -10 65 24 77 20 54 -18 -9 -14 -40 -27 -69 -29 -55 -3 -75
-33 -23 -33 23 0 28 -13 18 -55 -18 -73 -17 -73 -75 -35 -42 27 -52 28 -66 5
-9 -16 -33 -34 -52 -41 -48 -18 -45 -60 3 -45 27 9 41 2 45 -22 7 -32 9 -32
42 0 28 28 42 31 77 12 34 -18 37 -27 16 -40 -20 -12 -12 -22 29 -38 76 -29
93 -27 93 11 0 26 -6 28 -28 9 -41 -33 -57 5 -30 72 13 32 27 46 32 32 11 -30
139 69 181 140 16 25 23 30 17 10 -7 -22 0 -35 18 -35 19 0 24 12 16 33 -14
38 96 26 147 -15 34 -29 -22 -109 -79 -113 -54 -4 -64 -19 -34 -55 14 -16 18
-30 10 -30 -8 0 -4 -14 10 -30 14 -17 19 -37 10 -45 -8 -8 -19 -4 -24 10 -7
18 -17 17 -39 -5 -34 -34 -76 -21 -53 16 8 13 -10 8 -40 -11 -30 -20 -54 -27
-54 -17 0 11 9 25 20 32 30 19 24 50 -10 50 -16 0 -35 -25 -42 -55 -18 -74
-31 -93 -45 -70 -22 34 -103 51 -103 21 0 -16 -27 -27 -70 -30 -48 -2 -70 6
-70 24 0 43 -34 54 -78 26 -60 -37 -75 -3 -20 43 41 34 43 40 12 40 -23 1 -31
-8 -22 -22 10 -17 -4 -20 -49 -11 -56 12 -62 8 -58 -32 3 -26 -5 -42 -20 -39
-14 3 -25 -12 -25 -33 0 -21 -11 -44 -25 -50 -14 -6 11 -5 55 1 44 7 96 21
116 31 31 16 34 11 22 -33 -7 -32 -4 -51 10 -51 12 0 22 -13 22 -30 0 -17 -18
-30 -40 -30 -27 0 -40 13 -40 40 0 42 -29 54 -50 20 -7 -11 -4 -20 6 -20 24 0
25 -97 1 -112 -9 -6 -11 -59 -4 -119 12 -101 9 -110 -35 -127 -35 -14 -38 -20
-13 -21 37 -1 47 -31 16 -50 -10 -6 -24 -2 -32 10 -7 12 -25 17 -40 12 -14 -6
-37 2 -50 18 -29 36 -75 38 -74 4 3 -67 -8 -95 -35 -95 -16 0 -30 14 -30 30 0
42 -39 38 -42 -5 -2 -19 -9 -8 -17 25 -17 73 8 110 71 110 37 0 48 11 48 48 0
40 12 49 75 57 89 11 99 6 65 -35 -17 -20 -19 -39 -7 -51 12 -12 32 4 54 41
19 33 26 60 14 60 -11 0 -21 13 -21 28 0 16 -11 33 -25 39 -19 7 -18 15 5 31
27 20 27 24 0 43 -24 17 -21 19 13 9 36 -10 42 -5 33 28 -10 40 -68 45 -148
13 -60 -24 -66 73 -7 116 34 25 47 49 39 73 -6 20 -2 42 9 49 12 8 21 22 21
33 0 11 -9 15 -20 8 -11 -7 -20 -3 -20 9 0 11 22 21 48 21 26 0 53 15 60 33
18 45 -1 58 -38 27 -16 -14 -30 -16 -30 -5 0 11 14 31 30 45 17 14 30 39 30
57 0 24 -13 19 -50 -21 -27 -30 -50 -61 -50 -69 0 -7 -15 -30 -33 -50 -22 -25
-25 -37 -8 -37 61 0 1 -45 -65 -49 -103 -7 -126 -72 -36 -101 72 -22 -35 -210
-119 -210 -38 0 -68 52 -39 70 10 6 24 53 31 105 17 128 52 227 94 270 38 38
48 85 13 64 -12 -7 -7 15 11 49 36 69 102 88 86 23 -13 -49 35 -34 103 32 47
46 47 47 5 47 -31 0 -43 12 -43 43 l0 44 -46 -44 c-53 -49 -74 -54 -74 -18 0
14 28 47 61 73 34 26 58 63 55 82 -3 19 6 49 21 67 32 38 3 45 -34 8 -21 -20
-23 -14 -12 32 10 40 6 63 -13 75 -24 15 -23 21 2 38 26 17 16 28 -23 23 -23
-3 8 86 36 103 15 9 27 30 27 46 0 17 -9 25 -20 18 -11 -7 -26 2 -32 19 -7 17
-20 31 -29 31 -15 0 -18 -36 -19 -245 -1 -41 -11 -75 -23 -75 -16 0 -15 -8 1
-27 12 -16 17 -43 10 -60 -15 -41 -68 -43 -68 -3 0 17 -8 30 -19 30 -10 0 -24
19 -32 43 -10 33 -17 36 -31 15 -11 -18 -17 -20 -18 -4 0 13 9 29 20 36 11 7
20 30 20 51 0 21 18 50 40 64 43 27 52 75 20 107 -14 14 -4 36 30 68 27 26 50
66 49 88 0 42 0 42 -23 2 -25 -44 -56 -69 -85 -70 -10 0 -4 11 13 25 40 32 67
115 37 115 -12 0 -30 -20 -40 -45 -10 -25 -19 -34 -20 -20 -2 48 -41 25 -41
-25 0 -27 -9 -50 -20 -50 -11 0 -20 -28 -20 -61 0 -36 -8 -56 -20 -49 -11 7
-20 3 -20 -9 0 -49 56 -16 67 39 7 33 20 60 29 60 28 0 0 -128 -34 -156 -24
-20 -26 -29 -7 -37 14 -6 25 -22 25 -37 0 -30 -69 -59 -98 -41 -11 6 -23 -4
-28 -24 -8 -31 -10 -31 -12 -1 -1 18 17 47 40 63 l41 29 -43 14 c-24 7 -38 19
-32 25 6 6 -8 37 -31 70 -32 44 -36 63 -18 74 18 11 15 19 -10 28 -26 11 -31
28 -20 83 8 44 5 70 -8 70 -12 0 -21 13 -21 30 0 25 -6 24 -39 -4 -25 -21 -33
-44 -24 -64 9 -18 15 -61 14 -96 -1 -46 9 -67 36 -74 23 -6 31 -19 22 -34 -9
-14 -1 -34 19 -49 29 -21 29 -26 3 -36 -40 -15 -40 -71 0 -86 17 -7 27 -24 21
-39 -6 -15 7 -37 29 -48 21 -12 44 -43 51 -71 7 -27 25 -49 40 -49 36 0 35 10
-1 47 -25 25 -26 31 -2 40 18 7 35 -11 49 -49 15 -43 37 -62 82 -71 47 -9 59
-20 49 -45 -7 -17 -18 -70 -24 -117 -14 -115 -45 -108 -45 10 -1 88 -38 204
-40 125 -1 -23 -8 -22 -30 8 -15 20 -41 32 -58 26 -16 -7 -34 -1 -39 12 -5 13
-11 -1 -11 -32 -1 -31 5 -52 14 -46 9 5 15 -19 13 -54 -5 -108 -9 -108 -48 5
-21 61 -34 116 -29 124 11 18 -66 43 -90 29 -9 -7 -29 2 -42 18 -14 17 -37 30
-52 30 -32 0 -36 23 -10 51 9 10 22 55 28 99 6 44 7 65 2 47 -11 -36 -112 -41
-146 -7 -37 37 7 77 55 51 49 -26 51 -21 20 47 -13 29 -32 45 -45 37 -39 -25
-97 -26 -125 -3 -15 13 -27 16 -27 8 0 -8 -13 -4 -30 10 -37 31 -21 60 33 60
24 0 45 -17 51 -41 11 -41 146 73 146 124 0 35 -55 16 -78 -28 -17 -34 -20
-35 -10 -5 22 68 25 131 6 119 -10 -6 -18 -29 -18 -50 0 -77 -36 -37 -49 54
-9 61 -20 84 -31 67 -12 -19 -18 -17 -24 12 -5 21 -13 -5 -18 -57z m-580 -611
c-72 -6 -79 -11 -68 -50 10 -35 8 -38 -8 -14 -18 26 -21 25 -22 -5 0 -19 -4
-35 -8 -35 -5 0 -25 -5 -45 -12 -32 -10 -32 -8 2 14 39 24 39 25 0 40 -37 14
-37 15 -2 17 28 1 35 12 27 42 -9 33 -3 38 27 29 21 -7 58 1 82 18 40 28 46
27 69 -4 22 -30 17 -35 -54 -40z m2690 -118 c-62 -57 -72 -58 -64 -1 4 28 19
44 41 42 20 -1 35 11 35 30 1 28 3 28 19 4 13 -21 4 -42 -31 -75z m-401 29
c-8 -13 55 -24 98 -17 8 1 13 -8 10 -21 -5 -22 5 -25 150 -49 41 -7 75 -20 75
-30 0 -10 14 -18 31 -18 17 0 26 9 19 20 -7 11 1 14 19 8 17 -7 31 -2 31 10 0
12 10 22 21 22 13 0 16 -17 9 -40 -8 -26 -3 -41 14 -43 14 -2 35 -4 46 -6 11
-1 31 -9 45 -18 15 -9 38 -3 57 16 42 42 54 39 28 -9 -19 -35 -15 -40 28 -40
27 0 55 -9 62 -20 7 -11 3 -20 -9 -20 -38 0 -22 -81 20 -96 63 -24 -26 -121
-118 -128 -36 -2 -70 -12 -76 -20 -5 -9 -29 -16 -53 -16 -36 1 -38 4 -14 20
24 16 21 19 -16 20 -26 0 -41 -9 -35 -19 23 -37 17 -165 -8 -181 -20 -12 -16
-21 16 -39 56 -30 59 -89 3 -71 -46 15 -56 -25 -10 -43 17 -6 30 -26 30 -44 1
-29 3 -29 20 -3 11 17 20 26 21 20 21 -139 18 -198 -10 -187 -17 6 -31 19 -31
29 0 10 -12 18 -27 18 -44 0 -132 99 -119 134 7 18 -2 39 -21 49 -45 26 -41
52 9 68 29 9 39 25 32 51 -7 24 -2 33 11 25 14 -9 17 2 10 30 -9 33 -2 43 28
43 34 0 37 9 26 70 -12 64 -9 70 34 71 42 0 43 3 12 21 -19 11 -43 15 -53 9
-10 -6 -22 -3 -25 6 -26 68 -139 45 -173 -35 -19 -45 -45 -82 -59 -82 -39 0
-30 50 16 91 34 30 36 42 15 58 -51 41 -38 69 29 59 89 -13 122 12 98 75 -11
29 -12 62 -1 81 14 25 2 35 -61 51 -63 16 -81 14 -90 -8 -6 -17 -2 -24 11 -16
29 18 118 -69 118 -116 0 -35 -3 -35 -32 -6 -17 17 -39 26 -50 20 -10 -6 -18
0 -18 13 0 14 -6 19 -13 11 -18 -17 -72 62 -58 85 6 9 -10 23 -34 29 -75 20
-82 15 -33 -25 l47 -37 -77 8 c-42 5 -89 -2 -104 -15 -15 -12 -40 -18 -56 -12
-16 7 -34 -1 -40 -17 -6 -16 -4 -28 4 -26 37 5 64 -5 64 -25 0 -14 -21 -19
-51 -13 -37 7 -49 3 -41 -17 6 -15 3 -31 -7 -37 -36 -23 -34 111 2 153 48 54
47 70 -5 87 -29 9 -35 20 -22 33 20 20 32 14 113 -59 33 -29 91 -13 91 26 0
14 -20 29 -45 33 -78 11 -67 69 12 68 38 -1 65 -9 60 -17z m-1067 -107 c0 -35
-11 -48 -40 -48 -39 0 -59 75 -28 105 25 25 68 -11 68 -57z m-2079 -140 c10
-26 27 -48 39 -48 11 0 20 -10 20 -22 0 -38 -120 -3 -160 47 -44 54 -40 64 29
68 40 2 58 -10 72 -45z m1898 -23 c14 -30 34 -71 44 -90 11 -22 11 -50 -1 -71
-13 -24 -8 -47 18 -79 33 -41 38 -42 44 -10 6 26 11 21 19 -16 5 -29 3 -69 -5
-90 -15 -38 -15 -38 -20 1 -2 22 -9 0 -16 -50 -12 -93 -70 -131 -74 -50 -1 22
-9 56 -17 75 -9 21 -5 48 9 65 20 25 19 30 -10 30 -30 0 -31 4 -7 34 23 29 23
32 -6 21 -54 -20 -64 83 -10 105 27 11 32 18 13 19 -22 1 -31 23 -31 81 0 94
14 101 50 25z m159 -32 c12 -16 17 -45 10 -65 -6 -21 -16 -51 -22 -68 -13 -42
-62 79 -50 125 10 42 31 45 62 8z m-1715 -67 c48 -9 98 -86 56 -86 -10 0 -13
-13 -6 -30 6 -16 1 -30 -12 -30 -13 0 -18 -9 -11 -19 7 -13 30 -13 62 0 63 24
68 24 68 -1 0 -11 -18 -20 -40 -20 -45 0 -48 -8 -20 -59 15 -29 11 -39 -22
-47 -33 -9 -39 -21 -28 -58 21 -67 50 -92 50 -42 0 27 12 41 35 39 42 -4 76
-51 52 -73 -30 -28 -147 -45 -147 -22 0 12 -9 22 -20 22 -11 0 -20 -13 -20
-30 0 -16 -14 -30 -31 -30 -24 0 -26 -8 -9 -40 12 -22 34 -40 49 -40 15 0 32
-13 38 -28 6 -16 31 -33 57 -38 37 -7 34 -9 -15 -11 -34 -2 -72 -14 -86 -28
-20 -20 -28 -19 -42 3 -9 15 -27 21 -41 12 -17 -10 -22 -6 -15 12 5 15 20 26
33 23 27 -6 28 15 2 55 -14 20 -25 23 -35 9 -12 -18 -103 -24 -145 -11 -23 8
88 82 122 82 21 0 38 14 38 30 0 17 0 37 0 45 0 8 -11 15 -25 15 -14 0 -22
-16 -19 -35 7 -44 -32 -45 -79 -2 -22 20 -37 24 -37 10 0 -13 -13 -23 -30 -23
-49 0 -34 35 30 73 33 20 60 43 60 51 0 9 27 16 61 16 39 0 65 12 73 35 7 19
21 40 30 47 10 6 11 26 4 45 -9 24 -20 28 -37 14 -14 -12 -30 -16 -36 -9 -6 6
-17 -8 -25 -30 -7 -23 -27 -42 -45 -42 -26 0 -28 5 -9 24 33 33 30 66 -3 39
-15 -13 -33 -17 -40 -10 -18 18 27 69 49 56 10 -6 18 4 18 22 0 28 13 32 70
23 73 -12 110 14 72 52 -16 16 -22 16 -22 0 0 -12 -31 -21 -71 -20 l-71 2 46
36 c30 24 34 32 11 24 -21 -7 -35 -3 -35 12 0 16 15 20 45 10 25 -7 69 -18 98
-24z m3752 -21 c6 -17 -15 -25 -64 -25 -62 0 -69 4 -47 30 30 34 99 31 111 -5z
m-5139 -28 c-11 -33 -96 -36 -96 -4 0 16 22 27 52 27 30 0 48 -10 44 -23z
m4504 -7 c0 -16 15 -30 34 -30 27 0 29 -5 9 -25 -20 -20 -28 -19 -40 1 -10 15
-31 20 -52 12 -31 -12 -32 -9 -8 29 31 50 57 56 57 13z m-3655 -23 c64 -14 67
-30 23 -98 -31 -46 -30 -49 5 -49 27 -1 30 -5 11 -17 -14 -9 -20 -31 -13 -50
8 -19 4 -33 -10 -33 -13 0 -18 8 -12 18 6 10 -3 23 -19 29 -17 7 -30 27 -30
45 0 26 -13 30 -57 22 -50 -10 -61 -3 -91 60 l-34 71 66 -11 c36 -6 55 -7 41
-1 -45 18 -27 52 20 39 25 -7 70 -18 100 -25z m1838 -25 c38 -36 64 -195 35
-213 -10 -6 -18 5 -18 25 0 21 -19 50 -41 67 -40 28 -119 139 -119 167 0 22
107 -13 143 -46z m-232 -43 c7 -12 -3 -39 -22 -60 -34 -37 -34 -39 3 -41 23
-1 28 -5 12 -12 -20 -7 -17 -17 10 -38 34 -26 34 -28 -9 -40 -52 -15 -58 -39
-15 -55 17 -7 30 -28 30 -48 0 -21 10 -47 22 -59 15 -15 16 -33 2 -59 -12 -20
-13 -50 -4 -66 9 -17 21 -58 26 -91 6 -33 16 -75 24 -94 7 -18 4 -50 -7 -70
-21 -38 -70 46 -59 101 2 13 -5 41 -17 63 -36 68 -50 150 -25 150 17 0 17 8
-1 29 -13 15 -27 57 -32 92 -4 35 -21 74 -38 86 -30 23 -15 78 21 75 10 -1 19
14 20 33 1 19 3 55 5 80 3 47 31 60 54 24z m2020 6 c36 -25 25 -105 -15 -105
-20 0 -36 -10 -36 -21 0 -13 17 -16 44 -8 42 14 42 13 9 -20 -42 -43 -173 -27
-173 20 0 22 14 26 53 16 36 -8 49 -6 40 9 -8 12 -4 27 8 35 12 7 17 25 12 39
-17 43 17 63 58 35z m-4052 -75 c32 10 38 6 29 -19 -9 -23 5 -38 50 -53 57
-20 116 -87 107 -121 -2 -7 14 -8 36 -3 37 10 40 4 39 -69 -1 -26 -108 -16
-144 13 -19 15 -54 22 -77 16 -24 -6 -38 -6 -32 0 7 6 -11 29 -39 51 -34 27
-48 54 -41 79 8 31 4 34 -18 15 -32 -26 -69 -9 -69 32 0 16 -13 29 -30 29 -45
0 -36 31 15 54 33 15 57 13 89 -9 25 -16 62 -23 85 -15z m2173 -15 c26 -25 47
-55 48 -68 0 -12 21 -36 47 -53 46 -31 77 -210 37 -216 -138 -22 -204 -8 -204
41 0 28 -6 70 -12 94 -8 30 5 57 45 95 45 41 49 52 22 52 -19 0 -35 -9 -35
-20 0 -11 -9 -20 -20 -20 -11 0 -20 32 -20 70 0 81 25 88 92 25z m2149 20 c-1
-8 -1 -49 -2 -90 0 -85 -25 -59 -49 52 -12 56 -9 66 19 60 18 -4 33 -14 32
-22z m-602 -24 c19 -22 16 -39 -10 -80 -31 -46 -31 -51 -1 -51 21 0 32 -17 32
-50 0 -27 -9 -50 -21 -50 -36 0 -94 69 -88 105 3 19 -4 35 -15 35 -13 0 -11
12 4 30 17 21 18 30 2 30 -60 0 -15 44 61 58 6 1 23 -11 36 -27z m141 -9 c0
-10 -11 -22 -25 -27 -19 -7 -19 -16 3 -42 38 -46 18 -60 -62 -42 -62 13 -63
15 -21 31 46 17 63 58 24 58 -12 0 -16 9 -9 20 15 25 90 26 90 2z m-5520 -74
c0 -36 -48 -36 -77 -2 -16 20 -16 33 1 50 27 27 76 -4 76 -48z m1445 -4 c-7
-19 -22 -41 -34 -51 -12 -9 1 -12 29 -5 28 5 63 2 79 -7 20 -13 7 -22 -48 -32
-99 -19 -140 55 -83 148 23 36 73 -11 57 -53z m1955 52 c0 -22 -115 -20 -129
2 -6 10 21 17 59 16 39 -1 70 -9 70 -18z m645 -21 c-11 -41 -9 -42 22 -17 43
35 68 13 85 -74 9 -42 5 -64 -9 -64 -13 0 -23 -13 -23 -30 0 -16 -13 -30 -30
-30 -16 0 -37 0 -45 0 -20 0 -20 62 0 105 12 25 8 35 -14 35 -37 0 -41 62 -7
96 32 32 34 31 21 -21z m1168 30 c37 -24 -62 -125 -122 -125 -28 0 -51 10 -51
21 0 12 8 16 19 10 10 -6 24 -3 31 9 16 25 -21 26 -67 1 -21 -11 -47 -11 -64
0 -20 13 -21 18 -4 19 14 0 25 14 25 31 0 23 12 28 40 19 23 -7 40 -4 40 9 0
24 118 28 153 6z m-2068 -39 c9 -5 10 -17 4 -28 -6 -10 -22 -13 -33 -5 -12 7
-17 4 -10 -7 7 -12 57 -27 111 -34 87 -11 165 -57 140 -82 -29 -28 -186 -35
-162 -6 27 33 14 56 -31 56 -20 0 -25 -14 -16 -51 12 -46 9 -49 -26 -30 -57
30 -62 27 -62 -38 0 -41 -12 -62 -40 -71 -23 -7 -35 -23 -27 -35 9 -14 1 -17
-21 -8 -20 7 -38 13 -42 13 -3 0 -1 20 5 45 10 38 7 41 -18 20 -40 -32 -59
-11 -44 48 9 40 5 45 -26 35 -28 -9 -30 -7 -10 8 38 27 103 6 104 -33 1 -24 8
-20 24 13 14 29 33 42 53 35 25 -9 24 -5 -3 16 -38 30 -47 73 -15 73 11 0 20
23 20 50 0 49 55 56 125 16z m273 -69 c53 -42 105 -52 66 -13 -32 32 -30 56 4
56 45 0 51 -72 9 -108 -40 -34 -100 -9 -192 81 -66 63 28 50 113 -16z m1838
-35 c-8 -52 81 -127 138 -116 32 6 55 -6 77 -41 35 -52 26 -74 -27 -75 -21 0
-33 -15 -31 -36 3 -36 2 -36 -32 0 -19 20 -31 47 -26 61 5 14 -1 25 -13 25
-12 0 -22 -9 -22 -20 0 -29 -52 -24 -78 8 -18 21 -17 34 4 55 29 29 24 77 -9
77 -11 0 -13 -10 -5 -23 7 -12 -15 -1 -50 25 l-64 47 66 24 c36 13 69 25 72
25 4 1 4 -15 0 -36z m417 -27 c-5 -39 -20 -67 -38 -71 -47 -9 -63 34 -27 74
18 19 26 41 19 49 -8 7 1 13 19 13 26 0 32 -15 27 -65z m-684 3 c-6 -10 14
-18 45 -19 72 0 23 -32 -64 -41 -33 -4 -70 -14 -82 -22 -29 -21 -76 34 -57 65
9 15 20 16 34 2 26 -26 75 -7 75 29 0 15 12 22 30 15 16 -6 25 -19 19 -29z
m-4032 -18 c5 -17 -2 -22 -24 -14 -17 7 -37 4 -44 -7 -19 -32 71 -21 133 15
41 25 64 28 79 13 31 -31 -35 -92 -83 -76 -21 6 -38 4 -38 -6 0 -10 -27 -14
-60 -9 -64 9 -66 11 -48 77 13 46 70 51 85 7z m551 -103 c-35 -57 -71 13 -43
83 l20 50 17 -58 c9 -32 12 -66 6 -75z m3152 64 c0 -7 -31 -24 -70 -38 -38
-14 -70 -33 -70 -42 0 -9 -14 -22 -30 -28 -46 -18 -16 88 36 130 40 31 134 16
134 -22z m-2339 18 c45 -24 53 -115 12 -131 -16 -6 -23 -29 -18 -57 5 -25 -1
-52 -13 -60 -12 -7 -22 -22 -22 -33 0 -11 9 -15 20 -8 11 7 20 -1 20 -17 0
-16 5 -43 11 -59 14 -37 -43 -60 -89 -35 -24 13 -43 12 -59 -4 -12 -12 -29
-16 -36 -8 -33 32 31 60 83 36 84 -38 105 9 27 60 -38 26 -39 32 -12 59 19 19
27 51 21 82 -5 28 0 57 12 65 12 7 22 27 22 43 0 17 -9 25 -20 18 -11 -7 -20
6 -20 29 0 47 7 49 61 20z m1124 -54 c-3 -14 15 -25 42 -25 48 0 93 -67 93
-139 0 -20 12 -41 26 -47 31 -11 79 -154 52 -154 -10 0 -18 11 -18 23 0 13 -6
18 -13 11 -18 -19 -90 25 -76 47 6 10 2 19 -10 19 -11 0 -21 10 -21 21 0 12 9
16 20 9 11 -7 20 -3 20 9 0 27 -34 27 -50 1 -8 -12 -47 9 -95 50 -45 38 -93
70 -106 70 -12 0 -39 18 -59 40 -31 34 -31 40 -5 40 17 0 36 14 43 31 15 39
165 33 157 -6z m986 -59 c-11 -29 -15 -29 -38 3 -23 31 -27 32 -52 3 -22 -27
-21 -32 7 -32 17 0 32 -10 32 -21 0 -12 -8 -16 -19 -10 -10 6 -23 3 -30 -7 -6
-10 2 -23 17 -28 30 -12 22 -91 -19 -169 -25 -48 -58 -32 -39 19 7 17 -4 29
-30 30 -22 2 -36 -4 -30 -14 6 -9 0 -24 -12 -31 -12 -8 -29 -4 -36 8 -9 14
-33 0 -66 -37 -30 -35 -44 -65 -32 -72 11 -7 15 -30 10 -50 -6 -21 -2 -33 8
-27 10 6 18 1 18 -12 0 -13 -14 -18 -32 -11 -17 7 -40 12 -50 12 -47 0 -10
158 46 200 31 23 56 54 56 71 0 35 -53 39 -66 4 -7 -20 -14 -20 -35 0 -22 21
-22 25 2 25 25 1 25 4 -1 22 -23 16 -20 18 15 8 26 -7 45 -4 45 9 0 11 -9 21
-20 21 -11 0 -20 9 -20 20 0 11 16 20 35 20 29 1 30 4 6 19 -34 21 4 81 52 81
40 0 56 -55 26 -91 -20 -25 -19 -28 8 -17 38 14 44 -13 9 -48 -19 -19 -19 -24
0 -24 13 0 22 -11 19 -25 -3 -15 21 -28 60 -31 36 -4 65 3 65 14 0 11 -12 16
-27 10 -20 -7 -26 9 -23 66 7 121 9 133 23 120 7 -7 36 6 65 29 56 44 81 17
53 -57z m-1614 23 c29 -64 29 -69 -2 -69 -32 0 -80 75 -64 101 19 32 41 21 66
-32z m2176 21 c-14 -35 9 -40 40 -9 15 15 32 11 57 -13 33 -34 33 -37 -2 -62
-33 -24 -33 -26 8 -26 25 0 44 -12 44 -29 0 -19 12 -26 35 -18 28 8 29 7 7 -9
-16 -11 -41 -16 -55 -10 -18 7 -23 0 -16 -20 8 -21 -9 -38 -60 -56 -39 -14
-71 -33 -71 -41 0 -20 -59 -77 -81 -77 -10 0 -13 14 -6 30 6 17 25 30 42 30
24 0 25 6 5 30 -19 23 -19 30 -1 30 15 0 19 15 10 43 -12 38 -8 41 38 29 40
-9 49 -6 41 16 -6 16 -27 23 -50 17 -34 -9 -37 -4 -19 42 16 42 14 49 -10 40
-41 -16 -36 33 6 65 45 35 52 34 38 -2z m627 -13 c0 -8 -9 -20 -20 -27 -11 -7
-20 -39 -20 -71 0 -40 -10 -59 -31 -59 -41 0 -61 60 -27 81 23 15 23 25 3 59
-24 38 -22 40 35 36 33 -2 60 -11 60 -19z m-2372 -103 c-10 -32 -6 -37 21 -27
23 9 31 5 25 -12 -5 -14 -19 -23 -31 -20 -13 3 -23 -5 -23 -17 0 -12 13 -17
28 -12 49 19 55 -13 8 -38 l-46 -25 56 -21 c30 -12 60 -34 66 -50 6 -16 24
-25 40 -19 15 6 28 1 28 -11 0 -22 -38 -31 -106 -25 -20 2 -54 -6 -75 -18 -33
-17 -39 -14 -39 22 0 36 -9 41 -48 31 -48 -12 -85 30 -61 69 6 10 -13 24 -41
31 -66 16 -55 52 18 60 40 4 52 -2 45 -21 -6 -17 8 -30 39 -36 64 -12 81 17
27 45 -39 21 -40 26 -10 71 39 59 39 71 1 56 -29 -11 -42 15 -18 38 28 28 109
-32 96 -71z m1604 16 c-2 -77 -41 -85 -44 -8 -1 55 8 78 31 78 8 0 15 -31 13
-70z m-2365 -22 c-8 -20 -27 -27 -55 -20 -23 6 -55 12 -72 13 -44 3 40 36 94
38 33 1 41 -7 33 -31z m1405 -24 c-19 -37 -23 -67 -11 -85 15 -24 18 -23 19 6
0 42 20 44 69 8 26 -19 30 -31 14 -41 -13 -8 -18 -24 -11 -36 7 -11 1 -28 -13
-37 -20 -12 -21 -23 -3 -44 17 -21 16 -38 -8 -71 -33 -47 -127 -61 -130 -19
-14 186 -6 269 32 319 53 71 79 71 42 0z m-1024 -7 c-9 -14 -13 -60 -10 -101
5 -78 -22 -101 -54 -45 -29 53 -212 12 -191 -43 6 -15 1 -28 -11 -28 -12 0
-22 10 -22 22 0 12 -13 17 -30 11 -16 -7 -30 -2 -30 9 0 12 -11 17 -25 13 -14
-5 -22 -24 -19 -42 8 -48 -80 -85 -129 -54 -34 22 -34 23 -1 13 32 -10 35 -1
24 92 -10 87 -8 99 17 79 18 -16 44 -18 76 -6 115 42 166 47 138 14 -14 -17
-38 -31 -53 -31 -16 0 -28 -9 -28 -20 0 -11 18 -20 40 -20 22 0 40 10 40 21 0
12 8 16 19 10 10 -6 21 8 25 31 5 35 21 43 95 47 56 2 96 16 109 37 11 17 24
29 28 24 5 -4 1 -19 -8 -33z m104 3 c34 0 36 -24 4 -56 -35 -35 -97 -31 -85 6
27 87 34 99 43 75 5 -14 22 -25 38 -25z m2930 -1 c54 -42 40 -68 -47 -90 -46
-11 -55 -7 -55 26 0 29 -12 38 -45 35 -44 -5 -145 24 -105 30 57 9 95 18 103
26 21 21 104 6 149 -27z m-5422 -29 c20 -24 18 -32 -8 -42 -37 -14 -97 27 -81
54 17 27 61 21 89 -12z m214 -6 c43 -27 -8 -72 -83 -72 -45 0 -71 -10 -71 -26
0 -14 9 -26 19 -26 11 0 15 -13 8 -30 -13 -36 1 -38 57 -8 30 16 45 16 56 -1
10 -18 23 -15 47 9 39 39 41 30 10 -38 -24 -52 -90 -95 -71 -46 11 29 -42 39
-76 14 -47 -33 -88 -38 -77 -9 7 18 -1 29 -20 29 -25 0 -30 14 -21 65 19 106
24 115 76 115 27 0 55 9 62 20 15 24 51 25 84 4z m4599 -15 c7 -17 -2 -46 -18
-65 -31 -36 -26 -84 9 -84 11 0 15 13 9 28 -27 71 64 102 126 43 32 -30 67
-49 79 -42 13 8 17 1 10 -18 -14 -37 24 -91 64 -91 37 0 36 49 -2 80 -16 14
-30 47 -30 75 0 39 -6 45 -26 28 -27 -22 -114 -10 -114 16 0 24 98 61 109 42
6 -9 31 -12 54 -6 34 9 41 4 32 -19 -7 -17 -1 -42 11 -54 18 -18 17 -28 -3
-40 -20 -13 -21 -21 -4 -31 13 -8 22 -34 20 -58 -6 -73 0 -96 21 -83 12 7 16
21 10 30 -6 9 -1 23 11 30 12 8 14 23 3 37 -10 13 -12 45 -5 73 9 35 17 42 29
24 8 -14 10 -40 4 -56 -7 -17 2 -44 18 -61 17 -16 30 -22 30 -13 1 18 39 -37
40 -56 0 -7 -20 -22 -45 -34 -25 -12 -34 -22 -20 -23 14 0 25 -9 25 -19 0 -11
-31 -10 -74 2 -53 14 -77 14 -82 -2 -4 -12 -21 -22 -39 -22 -28 0 -28 4 2 37
47 52 41 83 -17 83 -52 0 -104 -81 -79 -122 6 -10 -7 -18 -30 -18 -22 0 -41
-12 -41 -27 0 -46 -68 -92 -116 -80 -31 8 -44 3 -44 -19 0 -45 -37 -62 -71
-33 -22 18 -29 18 -29 0 0 -13 -9 -18 -20 -11 -11 7 -20 -1 -20 -17 0 -16 11
-34 25 -40 18 -8 14 -17 -11 -34 -35 -21 -35 -24 -2 -48 19 -14 26 -30 16 -36
-10 -6 -17 -66 -16 -133 3 -123 -2 -132 -61 -110 -24 9 -26 19 -11 39 14 16
15 30 2 38 -10 6 -25 2 -32 -9 -20 -33 -47 -4 -36 39 6 22 27 45 48 52 21 6
38 23 38 37 0 43 -25 53 -49 20 -19 -26 -22 -25 -22 11 0 26 13 41 35 41 20 0
36 14 36 30 0 52 -118 39 -138 -15 -17 -45 -17 -45 -43 10 -14 30 -34 55 -43
55 -10 0 -16 16 -13 35 3 19 -2 47 -11 62 -25 40 25 63 81 38 52 -24 60 -46
22 -62 -15 -6 -11 -10 10 -11 19 -1 35 7 35 18 0 11 10 20 21 20 12 0 16 -9 9
-20 -7 -11 -8 -20 -3 -20 5 0 23 -5 39 -11 16 -6 34 2 40 19 9 21 3 26 -20 18
-25 -10 -30 -3 -22 27 9 34 2 38 -49 31 -49 -8 -58 -3 -52 28 5 26 31 41 83
50 74 12 118 -7 69 -30 -20 -10 -20 -14 0 -24 14 -6 25 -23 25 -37 0 -30 94
-25 126 7 15 15 2 28 -44 44 -48 17 -63 33 -56 58 18 70 -34 94 -211 98 -86 2
-98 32 -26 65 38 18 55 16 79 -8 27 -27 68 -30 182 -15 11 2 2 10 -20 19 -22
9 -65 12 -95 6 -31 -5 -55 -1 -55 10 0 25 56 51 105 50 67 -1 77 -5 65 -25 -7
-11 2 -14 21 -7 27 11 31 5 20 -30 -10 -32 -5 -43 20 -43 18 0 29 -11 24 -25
-21 -53 34 -66 83 -20 47 43 47 45 7 45 -23 0 -46 -9 -52 -21 -5 -11 -8 -9 -5
5 3 15 33 26 67 26 68 0 114 28 53 33 -21 2 -49 3 -63 2 -14 0 -25 7 -25 16 0
9 -27 22 -60 29 -62 14 -84 50 -30 50 17 0 30 9 30 20 0 11 -13 20 -29 20 -16
0 -34 9 -41 20 -7 11 7 18 34 15 34 -4 48 6 52 40 8 52 40 60 57 14z m667
-109 c-27 -51 -24 -57 41 -67 46 -6 85 -73 43 -73 -10 0 -14 -25 -8 -55 5 -32
2 -48 -8 -38 -10 9 -19 25 -20 35 -2 10 -4 24 -5 30 -2 7 -16 2 -33 -12 -21
-17 -30 -18 -30 -2 0 12 -13 22 -30 22 -23 0 -25 11 -9 52 10 28 15 58 10 67
-16 25 37 121 56 102 9 -9 6 -36 -7 -61z m-5049 38 c6 -9 23 -11 40 -5 40 16
37 -13 -6 -45 -33 -25 -33 -27 4 -27 30 -1 33 -7 16 -24 -18 -18 -30 -18 -51
0 -15 12 -34 17 -41 9 -7 -7 -13 3 -13 22 0 26 -10 31 -40 22 -38 -12 -58 25
-29 54 17 17 109 13 120 -6z m1065 -13 c-24 -29 -140 -23 -150 8 -5 14 24 21
81 20 68 -2 84 -9 69 -28z m1013 12 c28 -13 51 -40 51 -60 0 -47 -32 -48 -58
-2 -16 29 -21 30 -29 5 -26 -81 -29 -130 -11 -152 13 -16 13 -29 0 -37 -10 -6
-25 -3 -31 8 -7 11 -51 -1 -105 -30 -52 -28 -87 -44 -80 -36 8 7 4 25 -7 38
-15 18 -15 29 0 38 12 8 21 28 21 46 0 17 -6 26 -13 19 -16 -16 -87 22 -87 47
0 23 118 18 133 -5 14 -23 122 63 133 107 12 44 16 44 83 14z m531 -35 c0 -9
32 -33 71 -51 108 -51 152 -231 57 -231 -17 0 -25 -8 -19 -18 6 -10 28 -14 49
-8 49 13 67 -19 43 -77 -10 -26 -19 -36 -20 -22 0 14 -9 25 -18 25 -9 0 -13
-37 -9 -82 5 -51 1 -77 -11 -70 -11 7 -26 4 -33 -8 -7 -11 -2 -20 11 -20 14 0
18 -13 8 -35 -8 -19 -14 -53 -13 -74 4 -72 -78 -191 -117 -171 -18 10 -39 13
-45 7 -23 -23 -8 205 20 323 48 193 49 287 3 333 -41 41 -34 77 16 77 38 0 24
50 -15 51 -42 0 -80 29 -67 50 15 24 89 25 89 1z m2328 -13 c13 -35 -19 -109
-47 -109 -21 0 -62 112 -46 128 23 24 81 11 93 -19z m-1328 -26 c-1 -38 -97
-57 -106 -20 -6 20 -3 32 6 27 10 -6 23 -2 29 9 13 20 71 7 71 -16z m91 19
c-15 -25 59 -41 92 -20 59 38 76 20 65 -67 -6 -47 -10 -101 -10 -121 0 -20
-14 -41 -30 -48 -43 -16 -58 8 -28 44 31 38 9 67 -25 33 -38 -38 -38 -148 1
-134 46 18 67 -32 30 -74 -34 -37 -118 -50 -96 -15 7 12 23 14 36 6 14 -8 12
1 -3 20 -16 19 -21 34 -13 34 8 0 4 14 -10 30 -17 21 -18 30 -2 30 12 0 22 9
22 20 0 11 -22 20 -49 20 -36 0 -47 -8 -38 -30 9 -23 -4 -30 -54 -30 l-65 0
38 43 c21 24 27 37 13 29 -14 -8 -25 -5 -25 6 0 11 32 26 70 33 70 13 98 49
39 49 -17 0 -25 10 -18 21 7 12 23 18 36 13 13 -5 41 -1 63 7 31 13 32 17 7
18 -18 0 -38 15 -45 32 -6 17 -21 26 -32 19 -22 -14 -28 16 -7 37 20 19 51 16
38 -5z m-2903 -28 c-5 -13 -41 -38 -78 -56 -67 -32 -71 -22 -15 42 32 37 107
49 93 14z m304 1 c7 -7 -11 -19 -41 -26 -60 -15 -94 4 -53 30 30 18 73 16 94
-4z m2258 -43 c39 -30 39 -31 -10 -33 l-50 -2 50 -19 c33 -14 52 -13 56 1 4
12 15 21 25 21 10 0 13 -13 6 -30 -6 -16 -1 -30 11 -30 12 0 22 8 22 18 0 9
24 17 52 17 29 0 61 12 72 28 15 20 17 18 8 -10 -7 -20 -12 -45 -12 -55 0 -10
-23 -18 -52 -18 -34 0 -55 -13 -62 -38 -5 -21 -32 -44 -59 -51 -70 -18 -35
-58 38 -43 52 10 58 7 49 -28 -13 -51 14 -69 46 -30 39 47 95 38 92 -15 -1
-35 10 -46 53 -51 50 -6 81 -44 36 -44 -11 0 -15 -13 -9 -28 6 -15 1 -34 -11
-41 -32 -20 13 -92 49 -78 35 13 44 -82 10 -103 -18 -11 -29 15 -22 56 1 8
-11 20 -28 27 -16 6 -30 21 -30 32 0 30 -97 115 -125 110 -13 -3 -27 15 -31
40 -11 72 -76 54 -67 -18 3 -22 -118 -31 -131 -10 -7 11 -2 24 11 29 13 4 17
17 10 28 -7 12 9 39 35 60 26 22 38 34 25 28 -14 -8 -41 27 -69 87 -25 56 -53
94 -65 87 -14 -9 -13 -16 3 -21 33 -11 30 -45 -8 -87 -38 -42 -22 -78 29 -65
24 7 36 -1 36 -21 0 -23 -12 -28 -46 -19 -54 13 -64 -22 -12 -43 31 -12 29
-16 -13 -33 -35 -13 -54 -11 -65 7 -14 21 -21 20 -36 -4 -14 -21 -11 -33 11
-41 34 -12 35 -36 4 -74 -26 -31 -63 -33 -44 -2 9 14 5 18 -9 9 -13 -8 -23
-27 -23 -42 0 -31 -69 -59 -100 -40 -11 7 -20 0 -20 -15 0 -23 96 -95 128 -95
7 0 12 16 12 37 0 35 23 51 149 102 42 17 62 18 67 3 4 -12 22 -22 41 -21 29
0 29 2 -2 21 -34 19 -31 58 4 58 32 0 41 -89 10 -106 -16 -9 -25 -25 -18 -35
6 -11 -5 -25 -25 -33 -46 -17 -73 -45 -105 -103 l-24 -47 -31 43 -30 43 -35
-41 c-35 -40 -35 -40 -58 9 -30 66 -55 63 -80 -10 -30 -87 -35 -76 -41 85 -3
80 -8 181 -11 225 -8 97 4 130 44 130 22 0 16 14 -21 48 -50 46 -28 95 27 61
10 -6 43 2 73 17 61 31 133 24 83 -8 -21 -14 -20 -17 7 -18 18 0 39 9 46 20 7
12 21 15 32 9 28 -18 46 48 20 78 -12 15 -15 33 -7 41 7 8 2 21 -12 30 -20 12
-20 27 -1 68 25 55 41 53 128 -14z m2249 29 c24 -15 24 -23 2 -49 -33 -41 -69
-42 -54 -2 8 19 0 30 -23 30 -29 1 -30 3 -4 20 37 24 43 24 79 1z m-4291 -32
c6 -17 21 -26 32 -19 11 7 25 0 31 -16 6 -16 51 -34 102 -41 101 -14 168 8 87
28 l-50 12 62 32 c66 35 128 -1 128 -75 0 -17 11 -30 25 -31 14 0 3 -12 -23
-27 -36 -20 -41 -30 -20 -39 15 -6 4 -6 -26 0 -37 7 -66 0 -88 -22 -25 -25
-38 -28 -49 -10 -10 17 -19 11 -28 -18 -15 -48 -41 -56 -63 -18 -8 14 -7 18 2
10 9 -8 26 5 39 30 12 25 39 45 60 45 21 0 41 9 44 20 8 22 -195 23 -231 1
-12 -7 -22 -2 -22 11 0 13 -17 4 -38 -20 -38 -44 -39 -44 -52 -3 -7 23 -29 41
-48 41 -20 0 -52 18 -72 40 -33 36 -33 40 -3 40 18 0 33 -11 34 -25 0 -14 15
0 34 30 38 61 113 74 133 24z m4089 -42 c-26 -28 -49 -40 -54 -27 -10 30 57
102 81 87 11 -6 -2 -33 -27 -60z m-2917 -5 c0 -9 -13 -28 -30 -42 -21 -17 -30
-18 -30 -2 0 12 -10 22 -21 22 -12 0 -16 -8 -10 -18 6 -10 0 -23 -14 -28 -39
-14 -9 -32 62 -38 78 -6 121 -45 70 -64 -19 -7 -40 -4 -47 7 -8 14 -25 12 -50
-7 -35 -25 -34 -28 25 -41 88 -19 117 -131 34 -131 -38 0 -37 35 0 44 19 4 24
16 14 31 -19 30 -143 -22 -143 -60 0 -12 6 -16 13 -8 8 7 30 -2 50 -19 21 -19
53 -28 78 -22 32 8 39 4 31 -19 -7 -17 -12 -43 -12 -59 0 -15 -14 -28 -32 -28
-20 0 -28 11 -21 30 8 20 -1 30 -28 30 -21 0 -39 -9 -39 -20 0 -11 10 -20 21
-20 12 0 16 -9 9 -20 -7 -12 -6 -20 4 -18 52 9 60 -10 58 -140 -1 -76 -9 -145
-17 -154 -8 -8 -15 0 -15 19 0 18 -13 33 -30 33 -17 0 -30 18 -30 40 0 22 -8
40 -17 40 -26 0 -42 206 -19 235 15 17 11 28 -13 37 -25 10 -31 32 -25 92 7
67 2 82 -36 96 -65 25 -84 84 -22 69 29 -8 54 -2 64 14 17 27 19 37 25 102 3
37 143 54 143 17z m540 -102 c-14 -26 -35 -39 -53 -32 -17 7 -39 12 -49 12
-10 0 -18 14 -18 31 0 17 8 26 18 20 10 -6 39 -3 65 7 60 22 66 16 37 -38z
m940 20 c0 -11 27 -20 60 -20 33 0 60 -9 60 -20 0 -11 -32 -20 -71 -20 -44 0
-75 -11 -82 -30 -18 -49 -51 -35 -35 15 8 25 14 56 14 70 1 14 13 25 27 25 15
0 27 -9 27 -20z m-1863 -47 c13 -15 16 -33 9 -41 -8 -7 5 -19 29 -25 59 -15
99 -127 45 -127 -46 0 -74 -39 -42 -59 54 -33 42 -221 -14 -221 -56 0 -50 -20
9 -28 60 -9 55 -66 -7 -89 -55 -20 -55 -21 -11 -34 66 -20 34 -50 -38 -35 -56
11 -60 8 -48 -31 18 -56 -15 -55 -57 2 -19 25 -29 34 -23 21 7 -13 3 -29 -9
-36 -11 -7 -20 1 -20 18 0 16 -18 42 -40 58 -43 30 -34 58 12 40 21 -8 28 9
29 67 1 42 10 95 19 117 13 29 17 12 16 -63 -2 -73 8 -114 32 -138 40 -40 64
-26 41 25 -22 51 -27 529 -5 571 21 42 43 44 73 8z m-137 -35 c0 -35 -9 -41
-52 -33 -32 6 -55 0 -62 -17 -12 -33 -46 -17 -46 22 0 25 78 65 135 68 14 1
25 -17 25 -40z m2828 30 c36 -14 43 -79 12 -98 -12 -7 -16 -20 -11 -29 6 -9
-4 -45 -21 -80 -19 -36 -35 -130 -39 -217 -3 -85 -16 -185 -27 -224 -17 -57
-19 -37 -13 110 6 126 4 156 -8 101 -9 -44 -26 -83 -39 -87 -12 -4 -22 -21
-22 -37 0 -16 9 -24 20 -17 11 7 20 3 20 -9 0 -11 -10 -21 -21 -21 -13 0 -16
-17 -9 -40 7 -22 4 -40 -7 -40 -11 0 -33 -5 -49 -11 -20 -8 -37 7 -50 45 -14
38 -21 44 -22 19 -1 -24 -12 -33 -31 -26 -15 6 -34 0 -40 -13 -6 -13 -6 -1 0
26 20 85 20 90 -1 100 -11 6 -24 -16 -30 -48 -9 -55 -60 -100 -60 -54 0 12 10
22 22 22 16 0 15 10 -3 31 -40 48 -24 251 21 266 18 6 22 -2 14 -24 -7 -18 -5
-33 5 -33 10 0 21 -25 25 -55 3 -31 17 -53 31 -50 14 3 25 -4 25 -15 0 -28 67
-25 96 4 33 33 30 56 -7 56 -17 0 -26 9 -19 20 7 11 30 20 51 20 31 0 39 14
39 70 0 39 -8 70 -17 70 -10 0 -13 -22 -8 -50 7 -36 -1 -53 -28 -61 -20 -7
-54 -21 -74 -32 -50 -27 -57 -14 -31 60 21 59 40 73 88 64 11 -2 9 8 -5 22
-27 27 -34 97 -10 97 8 0 15 23 15 50 0 28 -5 50 -11 50 -25 0 -122 -169 -101
-176 33 -11 26 -84 -7 -84 -19 0 -25 12 -17 32 10 28 6 29 -30 10 -72 -38
-115 25 -60 89 24 27 55 49 70 49 14 0 26 9 26 20 0 11 14 20 30 20 17 0 30
12 30 26 0 46 221 108 288 82z m432 -137 c0 -16 -9 -34 -20 -41 -12 -7 -15
-22 -9 -32 17 -28 -31 -80 -58 -65 -13 8 -3 -9 22 -36 56 -61 57 -117 5 -177
-39 -45 -49 -70 -41 -109 6 -33 -19 -111 -37 -111 -24 0 -11 239 13 263 14 14
13 43 0 86 -24 79 -6 171 34 171 16 0 34 18 41 40 15 46 50 54 50 11z m-3329
-183 c-21 -15 -26 -29 -13 -37 17 -10 18 -151 2 -191 -2 -5 -15 44 -28 110
-14 70 -17 135 -8 155 11 22 10 35 -3 35 -12 0 -21 10 -21 22 0 12 13 17 29
11 17 -6 37 0 45 13 10 15 18 2 23 -35 4 -38 -5 -68 -26 -83z m361 -39 c32
-67 31 -72 -2 -97 -23 -16 -28 -31 -15 -39 23 -14 10 -93 -16 -93 -9 0 -16 68
-15 150 1 172 3 174 48 79z m598 -48 c19 -164 3 -210 -58 -170 -26 17 -62 24
-82 16 -25 -9 -33 -5 -26 15 5 15 33 28 61 28 28 0 58 7 67 15 8 8 -1 15 -20
15 -22 0 -29 9 -19 25 9 14 17 38 18 55 1 16 4 50 6 75 6 88 39 43 53 -74z
m729 88 c-20 -24 -15 -29 24 -31 l47 -2 -50 -16 c-33 -11 -38 -17 -15 -18 58
-3 117 -65 92 -96 -16 -19 -15 -26 2 -26 41 0 14 -89 -29 -97 -22 -4 -45 -16
-52 -26 -6 -10 -21 4 -34 32 -18 40 -16 56 8 81 28 27 25 33 -35 59 -37 15
-73 22 -79 15 -25 -27 -39 -124 -18 -124 11 0 20 9 20 19 0 11 15 14 34 7 28
-11 22 -19 -31 -40 -55 -23 -69 -23 -94 2 -37 37 -37 52 0 52 17 0 25 12 19
27 -16 44 51 98 105 84 38 -9 47 -4 47 29 0 46 -7 48 -61 19 -34 -18 -38 -14
-30 25 4 25 9 46 10 46 0 0 33 2 72 4 60 3 68 -1 48 -25z m711 -133 c-3 -55
-15 -109 -27 -121 -33 -33 -49 -4 -25 42 12 22 14 45 5 51 -17 10 -12 85 10
151 18 59 43 -21 37 -123z m-321 92 c25 -10 27 -19 9 -40 -12 -15 -17 -41 -11
-58 6 -16 -2 -41 -19 -55 -16 -14 -49 -43 -72 -65 l-41 -40 12 66 c8 41 5 61
-7 54 -27 -17 -25 11 5 75 14 30 39 58 55 62 17 5 32 9 33 11 2 1 18 -4 36
-10z m-2985 -86 c-7 -34 35 -85 58 -71 10 6 18 3 18 -7 0 -18 -162 -49 -177
-34 -4 4 12 27 34 52 39 42 40 46 7 72 -31 25 -29 27 16 21 29 -3 48 -17 44
-33z m222 -2 c-6 -22 2 -55 17 -73 21 -26 21 -35 2 -42 -34 -11 20 -64 69 -67
20 -1 5 -9 -34 -18 -38 -9 -76 -12 -85 -7 -32 20 -194 25 -205 7 -15 -25 -110
-27 -110 -2 0 9 14 28 30 42 29 24 39 13 31 -30 -2 -11 15 0 38 25 31 33 52
41 77 28 56 -29 88 -7 62 42 -18 33 -16 45 10 59 18 10 44 31 57 46 36 41 53
36 41 -10z m4226 3 c-6 -10 11 -13 38 -8 28 5 61 -4 79 -21 41 -41 40 -66 -1
-33 -25 22 -39 22 -72 1 -34 -21 -44 -21 -58 1 -24 37 -22 77 3 77 12 0 17 -8
11 -17z m-270 -238 c-16 -28 -21 -16 -21 57 -1 50 6 98 14 107 24 24 30 -124
7 -164z m-3342 93 c0 -20 10 -42 21 -49 31 -19 -38 -89 -87 -89 -39 0 -39 1
-4 40 34 37 34 40 2 40 -48 0 -105 57 -68 68 110 35 136 33 136 -10z m460 -38
c0 -11 13 -20 29 -20 62 0 44 -32 -20 -37 -58 -3 -69 3 -69 36 0 23 13 41 30
41 17 0 30 -9 30 -20z m3199 -68 c16 -20 17 -32 1 -42 -26 -16 -84 27 -69 52
16 26 41 22 68 -10z"/>
<path d="M7688 2165 c5 -30 9 -59 10 -64 1 -5 15 9 30 30 34 46 64 27 41 -25
-8 -20 -14 -42 -13 -49 1 -7 -8 -11 -22 -10 -54 6 -32 -38 28 -56 47 -14 68
-12 73 5 13 37 39 28 51 -16 12 -46 94 -56 94 -12 0 16 5 41 10 55 8 21 -13
25 -93 20 -94 -7 -102 -4 -87 30 31 74 22 117 -24 118 -24 0 -50 7 -58 15 -31
30 -49 12 -40 -41z"/>
<path d="M7889 2112 c-51 -37 -35 -50 46 -37 37 5 65 21 65 37 0 36 -62 36
-111 0z"/>
<path d="M7081 864 c-26 -28 -26 -30 4 -19 19 7 38 6 44 -3 24 -39 88 -37 98
2 8 33 3 38 -32 29 -24 -6 -52 -4 -64 6 -12 10 -33 4 -50 -15z"/>
<path d="M5495 745 c-13 -30 -30 -59 -37 -65 -20 -17 -42 -325 -22 -312 10 6
20 58 21 115 1 57 16 124 33 150 17 26 27 47 22 47 -5 0 -1 27 8 60 22 75 7
78 -25 5z"/>
<path d="M5866 668 c10 -60 6 -74 -26 -82 -34 -9 -35 -14 -9 -39 35 -36 69
-19 69 36 0 29 9 38 30 30 17 -7 30 -4 30 6 0 10 5 32 12 49 8 21 1 32 -20 32
-18 0 -32 9 -32 20 0 11 -15 20 -33 20 -26 0 -30 -14 -21 -72z"/>
<path d="M6004 415 c-15 -18 -12 -37 8 -64 15 -21 29 -35 29 -30 19 121 8 148
-37 94z"/>
<path d="M7538 878 c-18 -73 -11 -158 12 -158 21 0 25 19 16 75 -11 68 -23
105 -28 83z"/>
<path d="M6120 3090 c-18 -21 -19 -37 -4 -55 12 -15 28 -75 36 -135 15 -115
14 -116 73 62 l31 92 -51 -10 c-44 -9 -50 -4 -40 33 13 50 -9 56 -45 13z"/>
<path d="M3902 3092 c16 -16 544 -172 553 -164 4 5 -71 33 -168 62 -98 30
-216 67 -263 82 -83 27 -139 36 -122 20z"/>
<path d="M6599 3056 c-18 -77 -14 -97 24 -117 57 -31 118 24 85 76 -19 29
-105 62 -109 41z"/>
<path d="M7829 2962 c14 -42 -18 -76 -39 -42 -21 34 -50 22 -50 -20 0 -34 9
-39 55 -27 82 20 127 127 54 127 -22 0 -28 -12 -20 -38z"/>
<path d="M7923 2942 c-14 -9 -26 -24 -24 -34 7 -71 -40 -135 -69 -94 -30 43
-150 27 -150 -20 0 -9 -10 -10 -22 -3 -16 10 -16 2 0 -27 12 -23 31 -47 42
-54 26 -16 26 -50 -1 -50 -12 0 -16 9 -9 20 7 11 -2 20 -19 20 -18 0 -37 -13
-44 -30 -13 -34 -66 -41 -69 -10 -14 107 -46 131 -95 69 -24 -30 -43 -71 -43
-92 0 -20 -11 -37 -24 -37 -42 0 11 -34 74 -48 l60 -12 -50 29 c-27 16 -39 30
-25 30 14 1 43 -17 65 -39 42 -42 71 -54 50 -20 -7 11 -3 20 7 20 11 0 35 15
53 32 39 40 66 21 31 -21 -21 -25 -19 -33 8 -44 28 -10 29 -16 8 -30 -17 -12
-5 -13 33 -5 33 8 70 22 83 32 15 11 27 8 33 -8 8 -20 11 -20 12 -1 1 14 15
25 31 25 15 0 35 20 42 44 14 42 15 42 42 6 35 -49 35 -77 -2 -63 -17 6 -35 3
-42 -8 -6 -10 9 -20 35 -21 34 -2 37 -5 11 -12 -40 -10 -48 -66 -10 -66 17 -1
15 -7 -5 -22 -23 -16 -16 -19 30 -11 33 5 91 -5 130 -22 102 -45 162 -25 158
55 -1 20 -4 22 -11 5 -6 -14 -34 -25 -63 -25 -40 0 -47 5 -28 24 33 33 30 76
-5 76 -16 0 -35 10 -42 22 -9 14 6 19 44 15 51 -6 57 -1 56 48 0 30 7 55 16
55 10 0 12 9 5 20 -32 51 -199 -53 -177 -111 6 -16 2 -29 -8 -29 -37 0 -68 58
-55 99 9 29 4 41 -19 41 -17 0 -31 10 -31 22 0 12 13 17 29 11 17 -6 36 -1 43
11 9 13 5 17 -9 8 -13 -8 -23 -4 -23 8 0 12 -9 17 -20 10 -11 -7 -20 -2 -20
11 0 29 103 7 123 -26 17 -28 117 12 117 46 0 42 -61 86 -85 62 -34 -34 -55
-28 -55 17 0 23 -13 40 -31 40 -23 0 -28 12 -19 40 14 43 -18 53 -67 22z m-57
-255 c-6 -17 4 -27 27 -28 35 0 35 -1 2 -21 -20 -11 -31 -29 -24 -39 6 -11 3
-19 -6 -19 -34 0 -45 26 -22 53 22 27 -4 39 -30 13 -34 -34 -94 -21 -63 14 17
18 25 39 18 45 -7 7 15 12 48 11 42 -1 57 -10 50 -29z"/>
<path d="M4651 2859 c6 -11 25 -19 43 -19 21 0 27 -13 20 -42 -11 -41 -10 -41
24 -5 48 49 33 81 -39 83 -33 1 -55 -7 -48 -17z"/>
<path d="M5309 2844 c-45 -30 -23 -104 30 -105 103 -1 136 -51 78 -114 -66
-71 -86 -125 -46 -125 16 0 29 10 29 23 0 25 59 75 88 76 10 1 13 -5 6 -12 -8
-7 -2 -27 11 -44 21 -26 19 -28 -12 -17 -20 8 -47 8 -60 0 -13 -9 10 -25 57
-39 73 -22 75 -24 23 -25 -61 -2 -42 -62 19 -62 35 0 37 -53 3 -66 -17 -6 -14
-14 9 -24 50 -20 88 28 84 110 -2 39 5 81 16 93 13 17 6 21 -28 12 -43 -11
-44 -9 -16 25 28 34 27 36 -15 25 -52 -13 -80 18 -47 51 16 16 22 16 22 -2 0
-29 92 -32 110 -5 15 26 -71 111 -87 87 -34 -51 -82 -44 -75 10 4 30 3 38 -2
19 -15 -61 -86 -21 -86 49 0 22 -15 36 -38 36 -21 0 -42 9 -45 19 -4 11 -17
13 -28 5z"/>
<path d="M7325 2730 c-32 -37 -32 -130 0 -130 31 0 83 111 65 140 -17 27 -35
24 -65 -10z"/>
<path d="M5969 2552 c2 -76 71 -89 71 -13 0 20 -16 41 -36 46 -27 7 -36 -2
-35 -33z"/>
<path d="M3804 2549 c-104 -73 -2 -211 105 -141 75 49 40 172 -49 172 -6 0
-31 -14 -56 -31z"/>
<path d="M1503 2393 c-19 -22 -18 -31 6 -40 41 -16 95 6 85 34 -11 35 -65 38
-91 6z"/>
<path d="M5663 2325 c-3 -55 -10 -65 -53 -65 -54 0 -63 -19 -26 -56 18 -18 30
-17 53 1 26 21 28 19 17 -10 -11 -30 -7 -33 25 -15 55 29 75 25 32 -7 -20 -15
-29 -32 -19 -38 27 -17 94 38 79 64 -7 11 -4 21 7 21 39 0 -2 60 -49 72 -27 7
-50 30 -55 55 -6 29 -9 22 -11 -22z"/>
<path d="M1560 2305 c-1 -30 -3 -31 -20 -5 -17 26 -19 25 -20 -5 0 -19 -11
-35 -25 -36 -14 0 -9 -10 11 -21 20 -12 52 -15 70 -6 19 8 40 13 48 11 8 -1 9
11 3 27 -6 17 -20 30 -30 30 -11 0 -14 9 -7 20 7 11 3 20 -9 20 -11 0 -21 -16
-21 -35z"/>
<path d="M6740 2322 c0 -13 -8 -19 -19 -13 -10 6 -24 -9 -32 -34 -8 -25 -23
-51 -35 -58 -32 -20 1 -77 44 -77 22 0 45 8 51 18 6 10 -12 16 -40 13 -44 -5
-47 -2 -25 27 46 57 79 126 67 137 -6 7 -11 1 -11 -13z"/>
<path d="M8886 2248 c-13 -35 34 -76 59 -51 20 20 -2 83 -28 83 -10 0 -24 -14
-31 -32z"/>
<path d="M6881 2114 c-51 -26 -79 -74 -43 -74 12 0 22 9 22 20 0 11 13 20 29
20 28 0 62 36 47 50 -4 5 -29 -3 -55 -16z"/>
<path d="M7380 2070 c0 -27 9 -50 20 -50 11 0 20 14 20 30 0 17 16 31 35 31
30 2 29 4 -5 19 -62 27 -70 23 -70 -30z"/>
<path d="M2100 2045 c-53 -19 -56 -48 -13 -116 45 -70 91 -75 153 -16 63 60
-48 166 -140 132z"/>
<path d="M1145 1807 c-25 -18 -45 -43 -45 -57 0 -15 -33 -29 -80 -33 -44 -5
-80 -1 -80 7 0 9 -8 16 -18 16 -10 0 -14 -18 -8 -40 9 -32 1 -40 -42 -40 -28
0 -52 7 -52 16 0 28 -142 86 -179 74 -20 -6 -47 3 -61 20 -27 33 -110 42 -90
10 7 -11 -2 -21 -19 -22 -40 -4 -49 -7 -116 -34 -39 -16 -53 -35 -50 -66 7
-61 -60 -100 -88 -52 -20 35 -23 35 -59 2 -37 -34 -37 -35 3 -63 22 -15 39
-39 37 -52 -8 -63 5 -110 33 -121 18 -6 29 -1 27 13 -7 62 4 95 34 95 20 0 28
-11 21 -28 -10 -29 25 -52 79 -52 21 0 17 17 -17 70 -25 38 -56 66 -70 61 -14
-6 -25 -2 -25 7 0 18 39 39 64 34 8 -1 26 12 40 29 61 72 216 93 216 28 0 -23
23 -26 110 -16 78 8 110 5 110 -12 0 -13 -9 -18 -20 -11 -12 7 -20 -15 -20
-55 0 -74 -64 -150 -125 -149 -46 1 -44 17 5 59 50 43 52 82 4 66 -26 -8 -41
4 -57 46 -12 31 -40 62 -63 68 -29 7 -38 3 -30 -17 5 -16 17 -28 26 -28 8 0
20 -17 25 -39 13 -47 -53 -117 -76 -80 -8 13 -3 30 11 39 15 9 19 32 10 59
-10 34 -19 38 -41 20 -15 -12 -35 -18 -44 -12 -9 6 -30 2 -45 -7 -22 -14 -17
-22 26 -38 55 -21 71 -53 33 -66 -50 -16 59 -101 116 -90 60 12 165 -31 129
-54 -29 -18 -227 1 -242 23 -7 10 -39 16 -72 14 -118 -6 -120 -7 -79 -38 36
-28 37 -30 3 -30 -20 -1 -31 -10 -24 -21 8 -13 26 -13 52 1 31 17 40 16 37 -5
-10 -74 4 -112 46 -123 94 -24 118 -57 79 -109 -23 -29 -47 -41 -68 -33 -46
17 -61 68 -31 105 22 27 18 29 -25 18 -27 -8 -79 -14 -115 -14 -36 0 -65 -7
-65 -17 0 -9 26 -12 58 -8 45 7 64 -1 82 -35 21 -40 20 -43 -19 -30 -40 13
-43 8 -35 -70 9 -85 -53 -163 -105 -131 -12 8 -16 1 -9 -18 14 -34 48 -42 48
-11 0 11 13 20 30 20 24 0 23 -12 -9 -68 -37 -65 -37 -67 -1 -58 21 6 43 35
50 66 7 31 25 62 41 68 16 6 29 29 29 51 0 23 10 41 22 41 12 0 17 14 11 30
-9 22 3 30 47 30 33 0 75 18 97 41 30 33 56 40 121 33 68 -7 88 -1 105 32 20
38 17 39 -61 27 -64 -11 -82 -7 -82 15 0 16 -11 33 -25 38 -14 5 -18 16 -9 25
8 9 40 2 70 -15 58 -35 110 -21 157 42 18 25 28 26 53 5 23 -19 34 -19 45 -2
8 13 2 31 -13 40 -22 14 -23 22 -3 42 20 20 25 19 25 -6 0 -20 26 -38 65 -47
44 -10 54 -18 30 -24 -51 -13 -43 -50 9 -42 27 4 50 25 58 56 8 28 15 35 16
17 1 -19 7 -48 14 -65 9 -23 0 -32 -33 -32 -94 0 -15 -26 89 -30 79 -2 105 4
98 22 -5 14 -32 24 -60 22 -29 -2 -56 7 -60 20 -12 34 135 28 147 -6 7 -18 59
-23 189 -18 98 4 178 0 178 -9 0 -26 -96 -37 -119 -14 -27 27 -27 1 1 -50 16
-30 16 -47 0 -63 -41 -41 -22 -61 20 -22 23 21 61 35 83 31 28 -4 37 2 30 21
-20 52 82 152 113 111 29 -39 52 -27 52 28 0 20 -11 32 -25 26 -78 -29 -70 90
11 159 45 39 75 77 65 86 -9 9 -20 6 -25 -7 -4 -12 -27 -18 -49 -12 -35 9 -39
4 -28 -32 12 -36 6 -43 -38 -43 -59 0 -66 33 -16 73 33 27 33 28 -3 23 -21 -4
-42 6 -47 20 -5 14 -1 24 8 22 42 -7 67 4 67 30 0 34 -54 58 -71 30 -19 -31
-69 20 -55 56 8 21 3 28 -16 22 -15 -5 -28 -31 -28 -57 -1 -35 -16 -51 -64
-63 -60 -16 -61 -19 -40 -76 25 -65 30 -68 72 -42 24 15 23 24 -7 54 -34 34
-34 36 1 49 52 18 122 -70 88 -111 -13 -15 -17 -39 -9 -51 8 -13 6 -29 -4 -36
-10 -7 -33 -37 -52 -67 -36 -56 -104 -68 -148 -25 -17 16 -13 28 15 46 53 33
47 63 -13 63 -39 0 -56 14 -72 60 -22 63 -97 86 -97 30 0 -16 10 -30 21 -30
32 0 79 -52 79 -87 0 -40 -34 -61 -45 -28 -7 20 -22 20 -72 2 -35 -13 -59 -16
-53 -8 5 9 -9 21 -32 27 -25 7 -36 21 -28 34 10 16 24 14 47 -8 22 -20 44 -24
63 -12 34 21 30 25 -50 52 -33 12 -58 31 -55 44 3 16 -17 21 -60 15 -36 -4
-78 -9 -95 -10 -24 -1 -25 -5 -4 -18 15 -9 51 -14 80 -10 l54 8 -50 -23 -50
-23 48 -13 c38 -10 42 -17 20 -34 -50 -38 -118 -30 -118 14 0 56 -84 86 -107
37 -20 -42 -87 -44 -103 -3 -15 41 6 64 61 64 27 0 49 10 49 22 0 12 -14 17
-32 10 -18 -7 -28 -3 -24 9 4 12 15 21 25 19 9 -2 26 11 36 30 17 30 21 30 45
-3 15 -20 22 -44 16 -53 -6 -9 9 -5 32 9 23 15 39 40 37 57 -3 16 7 28 21 25
16 -4 21 3 12 17 -30 50 -30 168 1 126 15 -21 24 -43 19 -51 -4 -7 6 -18 22
-24 16 -6 25 -23 20 -37 -6 -14 12 -36 40 -49 27 -13 50 -16 50 -8 0 24 182
-29 200 -59 14 -23 22 -23 49 -1 29 25 29 30 0 63 -18 19 -27 45 -20 57 8 13
-6 21 -37 21 -27 0 -56 10 -64 23 -23 37 98 0 128 -39 22 -30 28 -30 45 -4 17
27 21 27 39 0 16 -25 19 -23 20 11 0 23 11 52 24 65 16 16 17 24 2 24 -12 0
-26 18 -32 40 -7 26 0 40 18 40 36 0 36 33 0 46 -45 18 -100 -34 -87 -83 16
-60 -32 -56 -73 7 -18 28 -41 50 -50 50 -10 0 -23 -22 -30 -50 -16 -62 -53
-66 -47 -6 3 25 -6 46 -20 48 -50 6 -53 8 -29 32 56 56 20 72 -51 23z m-597
-559 c9 -24 4 -29 -19 -20 -18 6 -46 12 -62 12 -16 0 -24 9 -17 20 19 31 84
23 98 -12z m169 -38 c32 -10 40 -21 27 -34 -26 -26 -170 18 -153 46 7 11 27
15 46 10 18 -5 54 -15 80 -22z"/>
<path d="M2834 1751 c-40 -30 -32 -39 51 -59 33 -7 55 -4 55 8 0 11 -9 20 -20
20 -11 0 -18 10 -15 23 8 34 -31 39 -71 8z"/>
<path d="M2282 1714 c-37 -37 -20 -154 23 -154 41 0 134 -129 122 -170 -12
-38 -11 -39 27 -5 21 19 45 35 52 35 7 0 8 -16 2 -35 -10 -33 -10 -33 11 0 17
25 17 46 0 77 -16 30 -16 39 -1 29 12 -7 22 -3 22 10 0 16 -23 21 -70 13 -38
-6 -70 -3 -70 7 0 11 12 19 26 19 35 0 44 151 10 173 -39 25 -130 25 -154 1z"/>
<path d="M8979 1545 c-1 -30 -4 -84 -8 -120 -4 -36 2 -70 11 -76 10 -6 18 48
18 120 0 125 -19 191 -21 76z"/>
<path d="M65 1548 c6 -6 -6 -29 -27 -50 -54 -54 -49 -85 12 -70 53 14 70 -16
20 -35 -16 -7 -30 -22 -30 -35 0 -17 7 -17 28 1 21 17 32 17 42 1 25 -41 -56
-84 -85 -45 -22 28 -25 24 -25 -31 0 -69 21 -81 60 -34 34 41 61 38 48 -5 -8
-25 1 -21 31 13 33 38 37 52 17 65 -14 9 -17 17 -6 17 11 0 9 7 -4 16 -17 11
-19 38 -6 94 13 56 11 83 -6 94 -28 18 -86 21 -69 4z"/>
<path d="M3955 1506 c-36 -9 -64 -80 -52 -133 6 -27 12 -27 47 1 38 30 38 31
1 18 -37 -13 -37 -12 -5 24 19 20 27 44 19 52 -8 9 -3 12 13 9 15 -4 31 4 36
18 10 26 2 27 -59 11z"/>
<path d="M8405 1457 c-34 -34 -32 -97 3 -97 48 0 74 49 46 87 -19 27 -30 29
-49 10z"/>
<path d="M1871 1342 c-18 -80 -9 -92 33 -43 27 31 29 44 7 73 -24 33 -27 30
-40 -30z"/>
<path d="M160 1194 c-38 -20 -50 -41 -48 -90 1 -35 -6 -64 -15 -64 -35 0 -15
-44 45 -99 35 -32 57 -67 49 -79 -7 -12 0 -22 18 -22 35 0 42 51 11 70 -12 7
-15 21 -9 31 6 11 -10 19 -36 19 -53 0 -67 51 -19 69 18 8 25 2 18 -17 -8 -20
1 -24 30 -17 43 11 2 65 -49 65 -10 0 -12 9 -5 20 7 11 1 21 -14 21 -14 1 -6
9 18 19 43 17 103 100 72 100 -9 0 -38 -12 -66 -26z"/>
<path d="M15 1187 c-5 -9 -7 -39 -4 -67 3 -27 6 -66 7 -85 1 -19 10 -35 20
-35 24 0 41 98 19 112 -10 6 -14 17 -9 25 5 8 2 27 -7 41 -9 14 -20 19 -26 9z"/>
<path d="M1847 1172 c14 -38 -158 -220 -190 -200 -17 10 -20 4 -10 -21 10 -26
6 -32 -17 -24 -18 7 -30 0 -30 -16 0 -41 34 -56 47 -21 17 44 73 37 73 -10 0
-25 -13 -40 -36 -40 -20 0 -46 -10 -58 -22 -24 -24 -93 55 -74 85 6 9 1 17
-10 17 -30 0 -46 -35 -22 -50 11 -7 20 -34 20 -61 0 -27 9 -49 20 -49 11 0 20
-18 20 -40 0 -48 31 -53 48 -8 17 45 15 52 -11 36 -13 -8 -18 -5 -11 6 26 41
114 5 114 -46 0 -27 -9 -48 -20 -48 -11 0 -20 -10 -20 -22 0 -16 9 -15 30 2
17 14 30 39 30 55 0 23 12 18 46 -17 65 -68 102 -72 86 -10 -7 27 -3 55 8 62
11 7 20 -8 21 -34 l0 -46 38 45 c51 61 67 57 57 -15 -5 -33 -7 -60 -4 -60 46
0 59 31 53 122 -7 96 -5 99 34 79 23 -13 41 -14 41 -4 0 36 -68 46 -92 14 -28
-39 -50 -40 -36 -2 8 21 0 25 -34 16 l-44 -11 42 42 c24 24 56 38 71 32 34
-13 56 36 32 74 -14 22 -22 23 -42 3 -39 -39 -62 -29 -50 20 11 46 -21 107
-57 111 -11 1 -23 21 -26 43 -4 23 -16 41 -28 41 -11 0 -15 -13 -9 -28z m67
-92 c21 0 17 -11 -17 -38 -55 -45 -86 -17 -52 47 14 26 25 32 30 16 5 -14 22
-25 39 -25z m-14 -90 c0 -6 -11 -29 -25 -51 -16 -26 -18 -45 -5 -55 27 -19 35
-104 10 -104 -11 0 -20 -13 -20 -30 0 -38 -10 -38 -71 2 -27 18 -49 47 -49 65
1 28 3 29 19 4 16 -25 21 -24 33 7 8 21 5 53 -7 71 -26 41 -9 73 45 86 60 15
70 16 70 5z"/>
<path d="M815 1168 c-8 -8 4 -27 26 -43 37 -26 45 -25 69 8 31 42 3 63 -39 28
-20 -16 -29 -17 -34 -1 -5 13 -14 16 -22 8z"/>
<path d="M940 1114 c0 -19 -13 -34 -30 -34 -16 0 -30 -9 -30 -20 0 -11 -13
-20 -30 -20 -16 0 -30 11 -30 24 0 13 -24 -6 -54 -42 -71 -86 -146 -125 -192
-99 -23 13 -34 12 -34 -2 0 -12 -19 -21 -41 -21 -23 0 -55 -13 -70 -29 -41
-40 -36 -56 10 -32 21 12 52 15 69 9 19 -7 37 1 44 21 8 20 26 28 49 21 19 -6
41 -2 48 9 8 12 27 21 43 21 19 0 25 -9 15 -25 -9 -14 -18 -58 -21 -98 -8
-109 123 -133 160 -28 3 10 22 12 41 5 28 -11 30 -21 14 -52 -25 -46 13 -84
40 -41 13 21 27 22 68 3 53 -24 81 35 31 66 -30 19 -4 50 31 37 50 -19 32 25
-21 49 -44 20 -50 18 -50 -14 0 -53 -59 -70 -92 -27 -36 48 -35 72 5 57 17 -7
44 -2 60 10 32 27 37 118 5 118 -12 0 -18 11 -13 25 5 14 23 25 42 25 18 0 33
9 33 20 0 11 -10 20 -22 20 -11 0 -34 17 -50 39 -24 34 -28 34 -28 5z m-65
-130 c4 -12 19 -17 33 -12 37 14 79 -45 62 -87 -10 -24 -18 -27 -24 -10 -15
40 -82 29 -96 -15 -7 -22 -27 -40 -43 -40 -20 0 -27 11 -20 30 7 17 4 30 -5
30 -35 0 -40 62 -9 98 34 40 90 43 102 6z"/>
<path d="M1320 1079 c-24 -17 -20 -20 20 -16 28 3 60 -1 73 -8 12 -8 34 -1 47
15 30 36 -89 44 -140 9z"/>
<path d="M1100 1057 c0 -13 -15 -40 -33 -60 -31 -35 -31 -37 1 -37 19 0 29 9
22 20 -7 11 -4 20 6 20 11 0 24 -17 29 -37 10 -37 95 -74 95 -41 0 10 -13 18
-30 18 -16 0 -30 9 -30 20 0 35 90 22 124 -19 58 -68 -3 -95 -125 -56 -116 37
-123 27 -34 -49 64 -55 90 -64 162 -57 22 3 32 -4 24 -17 -7 -12 -27 -22 -44
-22 -20 0 -27 -11 -19 -32 7 -17 12 -49 12 -71 0 -30 9 -37 39 -27 33 10 36 5
23 -44 -11 -40 -28 -56 -58 -54 -36 1 -41 -7 -31 -50 7 -29 6 -45 -3 -37 -9 8
-17 46 -18 85 -2 76 -40 99 -41 25 -1 -25 -11 -43 -24 -41 -41 8 -46 -50 -6
-60 22 -6 39 -21 39 -34 0 -16 -17 -20 -50 -12 -29 7 -50 4 -50 -8 0 -11 -10
-20 -21 -20 -13 0 -16 17 -9 40 8 24 4 40 -10 40 -12 0 -18 8 -12 17 17 27
-54 20 -97 -10 -22 -15 -29 -27 -17 -27 13 0 29 9 36 20 7 11 22 20 35 20 12
0 2 -21 -22 -46 -53 -57 -54 -78 -6 -121 40 -36 123 -45 123 -13 0 11 -22 20
-50 20 -41 0 -50 10 -50 54 l0 55 31 -45 c18 -25 39 -40 48 -34 9 5 22 -4 29
-22 13 -35 -11 -91 -40 -92 -10 0 -14 -10 -10 -23 4 -13 7 -41 6 -63 -2 -33 4
-31 32 15 18 30 45 55 59 55 14 0 25 18 25 40 0 22 -9 40 -20 40 -11 0 -20 15
-20 32 0 27 5 29 31 7 26 -22 33 -19 42 18 14 50 23 52 76 12 35 -27 28 -39
-17 -30 -10 2 -9 -9 2 -23 22 -28 27 -95 8 -93 -37 4 -62 -6 -62 -24 0 -12 8
-16 18 -10 10 6 22 4 25 -5 15 -34 175 -98 195 -78 25 25 82 -17 82 -62 0 -26
6 -25 39 5 22 20 49 28 63 20 18 -12 15 -20 -13 -30 -27 -10 -17 -14 36 -15
83 0 84 1 53 59 -12 23 -33 35 -50 29 -15 -6 -28 -3 -28 7 0 21 39 49 70 52
39 3 90 34 90 54 0 11 -13 9 -30 -5 -19 -16 -30 -17 -30 -4 0 18 -36 20 -125
6 -8 -1 -15 -20 -15 -42 0 -22 -10 -40 -21 -40 -13 0 -16 17 -9 40 15 46 -39
79 -73 45 -15 -15 -33 -9 -60 18 -34 34 -45 36 -72 13 -28 -23 -29 -21 -9 16
18 34 15 50 -12 80 -39 43 -55 108 -27 108 10 0 24 22 31 48 13 53 71 85 92
52 9 -14 23 -10 42 13 25 31 24 33 -7 21 -23 -8 -35 -3 -35 14 0 16 31 33 70
41 77 14 81 24 47 100 -31 68 -51 64 -47 -9 3 -47 -5 -60 -34 -60 -20 0 -42
-13 -49 -30 -16 -43 -47 -37 -47 10 0 22 -9 40 -20 40 -11 0 -20 -9 -20 -20 0
-11 -9 -20 -20 -20 -43 0 -17 37 40 57 39 14 56 31 49 49 -7 17 11 47 42 72
48 37 42 54 -17 44 -26 -4 -6 66 26 92 17 14 21 26 10 27 -109 11 -160 23
-172 42 -7 12 -37 22 -66 22 -28 0 -52 8 -52 18 0 9 -13 17 -30 17 -16 0 -30
-11 -30 -23z"/>
<path d="M3209 1007 c-49 -53 -62 -87 -34 -87 27 1 144 114 131 127 -23 24
-47 14 -97 -40z"/>
<path d="M8908 969 c-15 -59 -2 -79 41 -62 40 15 41 113 1 113 -16 0 -35 -23
-42 -51z"/>
<path d="M2207 950 c8 -19 0 -30 -21 -30 -29 0 -29 -4 2 -38 24 -27 28 -42 12
-52 -13 -8 -18 -27 -12 -42 6 -15 2 -28 -9 -28 -10 0 -19 -20 -19 -45 l1 -45
39 50 c22 28 35 61 30 75 -5 14 4 25 21 25 34 0 39 32 7 51 -12 8 -18 35 -13
61 7 33 0 48 -20 48 -18 0 -25 -12 -18 -30z"/>
<path d="M3685 949 c-36 -15 -65 -36 -65 -47 0 -11 -20 -39 -44 -61 -52 -49
-120 -56 -103 -11 6 17 4 31 -6 32 -9 0 -33 4 -52 8 -48 9 -45 -52 5 -110 22
-25 40 -36 40 -23 0 13 9 23 21 23 14 0 13 -13 -1 -40 -24 -45 14 -74 70 -53
18 7 30 0 30 -18 0 -41 49 -57 94 -31 32 18 29 21 -19 21 -30 1 -55 10 -55 20
0 11 14 15 30 8 17 -6 30 -1 30 11 0 12 -22 22 -50 22 -70 0 -63 34 10 44 33
5 60 0 60 -11 0 -12 11 -10 25 4 20 21 18 31 -11 52 -27 20 -30 30 -10 37 18
7 15 11 -7 12 -34 2 -39 71 -5 73 50 3 148 34 148 46 0 25 -67 21 -135 -8z"/>
<path d="M8680 966 c0 -9 -41 -42 -91 -73 -50 -32 -88 -61 -84 -65 13 -12 95
16 95 33 0 10 32 23 70 30 79 15 82 20 40 62 -16 16 -30 22 -30 13z"/>
<path d="M2991 921 c-17 -28 63 -65 125 -58 30 3 65 -1 78 -9 13 -8 29 -6 35
4 18 29 -25 47 -111 46 -43 -1 -78 7 -78 17 0 25 -34 24 -49 0z"/>
<path d="M3760 892 c0 -18 1 -38 2 -45 1 -7 -11 -20 -25 -30 -32 -20 17 -63
49 -43 10 6 26 -1 36 -16 14 -22 17 -23 18 -2 0 17 14 22 38 15 45 -15 71 16
48 57 -17 30 -21 32 -86 32 -22 0 -38 10 -35 23 3 12 -6 26 -20 31 -14 5 -25
-5 -25 -22z"/>
<path d="M8363 886 c-15 -16 -45 -25 -67 -19 -29 7 -36 2 -28 -20 7 -17 12
-34 12 -39 0 -4 23 -8 51 -8 34 0 46 8 37 23 -10 16 -1 20 29 12 29 -8 43 -2
43 17 0 15 20 29 45 29 43 2 43 3 5 18 -22 8 -43 7 -47 -3 -4 -10 -16 -10 -30
1 -15 12 -33 9 -50 -11z"/>
<path d="M100 885 c0 -14 -16 -25 -35 -25 -26 -1 -28 -5 -9 -17 14 -9 20 -31
12 -50 -12 -32 -15 -32 -40 1 -24 31 -25 27 -6 -29 17 -49 16 -73 -2 -95 -29
-35 -9 -72 31 -57 16 6 29 33 29 60 0 26 13 78 28 115 17 41 21 77 10 94 -12
20 -17 21 -18 3z"/>
<path d="M2363 847 c4 -20 23 -40 42 -43 49 -10 44 30 -7 57 -36 19 -41 17
-35 -14z"/>
<path d="M2800 817 c0 -7 -18 -9 -40 -3 -27 7 -40 1 -40 -21 0 -17 -14 -39
-31 -48 -26 -15 -22 -22 20 -41 36 -16 47 -33 38 -58 -10 -30 -7 -30 20 4 27
33 31 34 21 5 -7 -20 -3 -35 10 -35 12 0 22 -13 22 -30 0 -16 -10 -30 -22 -30
-19 0 -9 -104 15 -144 18 -31 57 7 60 59 2 29 13 57 25 61 12 4 22 21 22 37 0
16 9 24 20 17 13 -8 13 5 0 39 -12 33 -12 51 0 51 11 0 20 14 20 30 0 36 -43
39 -76 6 -13 -13 -30 -17 -38 -9 -7 8 4 32 26 54 43 43 108 35 108 -13 0 -15
12 -22 30 -15 16 6 63 12 104 14 55 2 77 13 82 38 6 30 -1 32 -45 16 -39 -15
-51 -14 -51 6 0 19 -39 26 -150 25 -82 -1 -150 -7 -150 -15z m17 -75 c-15 -23
-38 -42 -52 -42 -35 0 -31 12 19 59 52 49 69 40 33 -17z"/>
<path d="M8202 802 c-16 -10 -30 -46 -32 -81 -4 -68 25 -56 39 16 5 24 14 52
21 63 15 24 9 25 -28 2z"/>
<path d="M3307 749 c-19 -39 -18 -49 3 -49 49 0 41 -68 -15 -125 -55 -57 -84
-215 -33 -184 12 7 16 34 10 60 -13 49 16 85 38 49 7 -11 21 -15 32 -9 10 6
24 -3 30 -20 18 -46 44 -38 42 14 -1 25 4 70 12 100 11 42 5 64 -30 99 -25 25
-47 57 -49 72 -7 45 -16 44 -40 -7z"/>
<path d="M8440 781 c0 -31 40 -46 66 -25 13 11 47 24 74 29 29 6 10 11 -45 12
-52 2 -95 -5 -95 -16z"/>
<path d="M337 743 c21 -14 20 -20 -5 -30 -65 -24 -29 -47 73 -44 82 1 106 9
111 36 4 20 25 35 48 35 34 0 37 -5 17 -29 -28 -34 -12 -71 30 -71 34 0 37 28
8 81 -13 25 -42 39 -81 39 -33 0 -55 -8 -49 -19 16 -25 -30 -51 -46 -27 -7 11
-40 26 -73 34 -37 8 -50 7 -33 -5z"/>
<path d="M2480 740 c-16 -10 -44 -15 -61 -10 -20 7 -30 -3 -30 -29 0 -21 7
-33 16 -28 9 6 11 -13 4 -41 -15 -59 17 -69 76 -24 46 35 44 50 -10 71 -45 18
-45 18 -2 20 23 0 48 15 54 31 13 34 -4 38 -47 10z"/>
<path d="M2548 672 c-22 -56 -23 -102 -3 -127 11 -14 12 -25 2 -25 -9 0 -3 -9
13 -20 25 -15 26 -26 5 -59 -14 -22 -25 -58 -25 -79 0 -21 -11 -43 -25 -49
-15 -6 -7 -16 20 -24 25 -8 45 -19 44 -26 -1 -24 -76 -103 -97 -103 -12 0 -22
-13 -22 -29 0 -17 -12 -25 -27 -19 -18 7 -31 -8 -38 -41 -13 -69 11 -64 75 14
l52 65 -6 -69 c-5 -53 2 -71 29 -77 21 -4 35 5 35 25 0 17 -9 31 -20 31 -11 0
-20 19 -20 41 0 26 8 36 23 27 14 -8 18 -5 10 8 -8 12 -1 29 14 38 16 9 32 34
37 56 5 22 19 38 32 35 34 -7 30 34 -4 47 -36 14 -28 67 15 98 18 13 33 32 33
41 0 9 -10 7 -22 -5 -37 -37 -71 -9 -66 55 3 39 -5 59 -24 59 -15 0 -28 10
-28 21 0 12 8 16 18 10 9 -6 28 2 41 17 16 20 16 32 2 42 -12 7 -16 21 -10 31
6 11 -3 19 -20 19 -18 0 -37 -13 -43 -28z"/>
<path d="M3845 686 c-25 -5 -45 -22 -45 -37 0 -33 51 -39 70 -9 7 12 20 16 29
10 9 -5 22 4 28 20 12 30 2 32 -82 16z"/>
<path d="M984 671 c8 -9 6 -33 -5 -54 -16 -29 -13 -37 10 -37 17 0 31 -15 31
-34 0 -29 4 -29 29 5 38 50 39 71 1 56 -19 -7 -30 0 -30 20 0 17 -11 37 -25
45 -14 8 -19 7 -11 -1z"/>
<path d="M2105 665 c-14 -4 -25 -21 -25 -36 0 -18 -12 -23 -33 -15 -26 10 -31
5 -20 -22 7 -19 13 -39 13 -44 0 -20 57 -5 79 21 30 36 20 108 -14 96z"/>
<path d="M2205 658 c-25 -9 -45 -26 -45 -37 0 -34 56 -24 80 14 19 30 20 29
10 -10 -21 -75 15 -115 59 -66 21 23 28 41 16 41 -12 0 -27 -11 -33 -25 -7
-14 -9 -1 -5 29 8 62 -17 78 -82 54z"/>
<path d="M118 608 c-21 -26 13 -63 36 -40 7 6 26 0 43 -13 26 -21 28 -19 17
10 -7 19 -4 35 7 35 10 0 19 7 19 16 0 25 -100 19 -122 -8z"/>
<path d="M423 608 c-20 -23 -34 -25 -49 -10 -37 37 -59 24 -49 -27 9 -49 -26
-82 -80 -73 -14 2 -25 -8 -25 -22 0 -14 23 -27 50 -29 31 -2 50 8 50 25 0 44
33 33 79 -25 39 -50 41 -50 41 -10 0 47 30 58 48 18 7 -14 8 0 2 30 -9 47 -5
54 34 50 73 -8 69 57 -6 83 -35 12 -65 22 -66 21 -1 0 -14 -14 -29 -31z"/>
<path d="M721 613 c-10 -10 -13 -32 -6 -49 9 -24 2 -28 -34 -19 -57 16 -101
-1 -101 -38 0 -16 -9 -24 -20 -17 -11 7 -20 -1 -20 -18 0 -59 113 -93 124 -37
6 31 11 30 50 -9 34 -34 45 -37 54 -14 17 45 -8 87 -45 73 -29 -11 -30 -8 -5
22 61 75 126 -112 69 -199 -38 -58 -28 -61 32 -9 24 21 54 42 66 46 14 5 13
20 -2 50 -13 23 -23 68 -23 99 -1 127 -71 187 -139 119z"/>
<path d="M1552 588 c-15 -38 3 -73 30 -57 10 6 8 -11 -5 -40 -23 -50 -24 -50
-52 -11 -37 54 -60 36 -49 -39 10 -72 11 -73 86 -19 l58 41 -42 -72 c-24 -40
-37 -78 -30 -85 6 -7 12 -4 12 8 0 17 22 48 100 141 12 14 30 25 41 25 25 0
24 -34 -1 -50 -28 -18 -25 -52 5 -49 57 8 75 -3 75 -46 1 -58 30 -107 48 -78
7 12 26 16 43 10 40 -16 36 6 -9 51 -21 21 -45 33 -54 25 -8 -7 -9 3 -2 22 8
23 3 35 -17 35 -44 0 -35 42 13 55 30 8 34 15 16 26 -21 13 -21 27 0 72 25 55
24 55 -13 21 -22 -19 -53 -30 -70 -23 -17 6 -35 -2 -42 -20 -6 -17 -27 -31
-45 -31 -31 0 -31 4 2 40 36 40 35 40 -27 28 -53 -11 -62 -8 -51 19 7 18 8 33
2 33 -5 0 -15 -14 -22 -32z"/>
<path d="M1872 563 c-19 -56 -6 -73 42 -52 20 8 49 13 65 10 24 -4 25 1 2 27
-19 24 -33 27 -52 11 -19 -16 -28 -12 -33 15 -7 30 -11 29 -24 -11z"/>
<path d="M2650 580 c-7 -11 -4 -20 6 -20 11 0 24 -19 31 -43 9 -37 16 -40 43
-17 28 23 27 29 -9 63 -45 42 -54 45 -71 17z"/>
<path d="M7680 542 c0 -48 43 -65 75 -31 25 28 21 34 -40 55 -25 9 -35 2 -35
-24z"/>
<path d="M35 521 c-61 -60 -50 -276 16 -301 75 -29 98 -25 68 11 -14 18 -41
28 -60 23 -40 -10 -32 51 12 86 20 18 24 13 15 -19 -8 -32 -3 -39 20 -30 17 7
27 25 21 41 -16 39 27 35 50 -5 16 -30 20 -29 32 10 8 24 22 43 32 43 11 0 19
9 19 20 0 12 -22 7 -48 -11 -29 -18 -53 -23 -60 -12 -7 11 -30 15 -52 9 -22
-6 -40 -1 -40 12 0 12 11 22 25 23 39 1 120 75 106 98 -7 10 -26 14 -42 8 -16
-6 -41 -3 -54 8 -17 14 -36 9 -60 -14z"/>
<path d="M2220 522 c0 -10 -18 -13 -41 -8 -27 8 -39 2 -35 -16 3 -15 -14 -30
-39 -34 -42 -6 -66 -44 -27 -44 35 0 87 -103 64 -126 -16 -16 -22 -15 -22 3 0
14 -10 19 -21 12 -12 -7 -17 -24 -12 -38 6 -16 -26 -34 -90 -52 -55 -15 -104
-34 -109 -42 -5 -8 -21 -11 -34 -6 -14 6 -43 -3 -65 -20 -37 -28 -36 -29 26
-25 36 2 65 12 65 21 0 10 13 12 29 6 15 -6 32 0 36 13 6 17 18 16 45 -6 27
-22 39 -23 45 -6 4 13 20 19 36 13 16 -6 34 3 41 21 18 47 53 39 38 -8 -8 -27
-4 -40 14 -40 34 0 42 -79 13 -114 -17 -21 -6 -26 56 -25 76 1 76 2 32 32 -25
18 -45 39 -45 47 0 8 20 21 45 28 34 9 39 16 18 29 -20 14 -21 22 -4 33 13 8
19 27 13 42 -6 15 -2 28 9 28 10 0 19 9 19 20 0 31 -63 24 -88 -10 -16 -22
-30 -24 -52 -8 -26 19 -25 20 3 11 39 -12 67 39 31 55 -13 6 -7 9 14 6 22 -2
40 10 43 31 3 23 -3 30 -18 21 -38 -24 -93 -27 -93 -6 0 11 9 20 20 20 11 0
20 9 20 20 0 11 -19 20 -43 20 -24 0 -37 6 -30 14 23 23 73 24 73 2 0 -11 23
-16 50 -11 53 10 75 -9 85 -75 10 -64 39 -77 50 -22 6 34 2 46 -13 38 -12 -8
-11 0 3 18 28 34 -13 90 -45 61 -9 -8 -11 0 -5 18 19 52 -7 60 -46 16 -37 -43
-67 -24 -47 29 7 18 7 32 0 32 -7 0 -12 -8 -12 -18z"/>
<path d="M1960 467 c0 -53 -20 -72 -51 -46 -18 15 -30 14 -39 -1 -19 -30 -7
-39 57 -44 56 -5 71 -50 31 -90 -12 -12 -19 -34 -14 -48 6 -18 21 -13 52 18
36 36 40 52 23 95 -10 29 -16 58 -11 66 5 7 -4 31 -20 52 -27 38 -28 38 -28
-2z"/>
<path d="M310 393 c-36 -27 -36 -29 8 -52 35 -19 51 -18 75 1 24 21 33 20 47
-2 10 -15 61 -30 122 -33 l106 -7 -83 61 c-80 59 -85 60 -143 30 -53 -28 -62
-28 -77 -1 -14 26 -22 26 -55 3z"/>
<path d="M193 227 c-7 -20 -18 -47 -24 -59 -14 -30 136 -76 198 -61 52 14 91
-41 63 -87 -14 -23 127 -27 163 -5 18 11 16 25 -5 54 -28 38 -28 38 -57 0 -17
-22 -30 -30 -30 -18 -1 12 10 32 23 45 34 34 -33 96 -124 113 -43 8 -60 7 -44
-4 31 -22 10 -85 -28 -85 -15 0 -28 14 -28 30 0 37 -23 39 -57 5 -20 -20 -23
-18 -13 9 8 18 5 49 -5 67 -18 31 -20 30 -32 -4z"/>
<path d="M692 225 c-27 -26 -39 -28 -46 -10 -11 28 -66 34 -66 7 0 -9 18 -22
40 -28 25 -6 41 -28 42 -57 3 -104 25 -157 52 -129 8 7 3 33 -12 56 -18 29
-19 45 -4 55 20 12 56 141 39 141 -5 0 -25 -16 -45 -35z"/>
<path d="M852 243 c-56 -12 -99 -63 -54 -63 12 0 22 9 22 20 0 11 10 20 22 20
12 0 17 -14 10 -31 -6 -17 1 -35 18 -42 17 -6 30 -21 30 -33 0 -15 -8 -14 -24
2 -34 34 -96 30 -96 -7 0 -78 107 -123 195 -83 47 21 61 54 23 54 -17 0 -17 7
0 27 12 16 16 44 9 64 -13 34 -15 34 -29 -2 -13 -34 -15 -35 -17 -4 0 19 -10
35 -20 35 -11 0 -15 14 -8 30 12 32 9 32 -81 13z"/>
<path d="M2713 200 c-8 -42 -29 -67 -68 -82 -49 -19 -51 -23 -20 -41 20 -11
31 -27 25 -37 -14 -23 25 -46 51 -29 14 9 14 21 -1 40 -31 36 11 117 53 101
22 -9 28 1 23 42 -9 75 -48 79 -63 6z"/>
<path d="M2857 173 c-5 -60 0 -85 16 -79 24 9 45 103 31 143 -17 51 -40 18
-47 -64z"/>
<path d="M2046 85 c-8 -19 -28 -46 -45 -59 -26 -21 -19 -25 44 -25 52 -1 75 8
75 27 0 16 5 43 12 60 9 23 0 32 -30 32 -24 0 -49 -16 -56 -35z"/>
<path d="M6660 108 c0 -21 69 -85 84 -76 9 6 16 1 16 -11 0 -35 29 -24 57 22
25 40 24 41 -25 29 -29 -7 -52 -5 -52 5 0 10 -18 23 -40 29 -22 6 -40 7 -40 2z"/>
<path d="M100 70 c0 -36 -72 -40 -87 -5 -5 14 -11 5 -11 -20 -2 -53 63 -63
109 -16 33 33 38 71 9 71 -11 0 -20 -13 -20 -30z"/>
<path d="M2740 45 c0 -52 68 -64 87 -16 14 36 -19 61 -38 29 -10 -16 -19 -14
-31 5 -13 20 -17 15 -18 -18z"/>
<path d="M6947 49 c-17 -44 -1 -52 86 -45 l77 6 -68 35 c-83 42 -80 42 -95 4z"/>
<path d="M1193 30 c-9 -24 5 -30 68 -30 45 0 79 10 79 22 0 13 -18 18 -40 12
-22 -6 -45 -2 -51 8 -17 27 -43 22 -56 -12z"/>
<path d="M7133 30 c-10 -25 10 -30 108 -30 65 0 119 8 119 18 0 10 -37 16 -81
14 -45 -3 -86 3 -91 12 -16 25 -43 19 -55 -14z"/>
<path d="M6110 19 c7 -10 45 -19 85 -19 89 0 70 25 -26 33 -41 3 -65 -3 -59
-14z"/>
</g>
</svg>
